<?xml version="1.0" standalone="no"?><svg xmlns:xlink="http://www.w3.org/1999/xlink" xmlns="http://www.w3.org/2000/svg" viewBox="0 0 1920 1221.8219130103053" preserveAspectRatio="xMaxYMax slice"><g transform="scale(3.1571625659181013)"><rect x="0" y="0" width="608.1428571428571" height="387" fill="#141f22"/><rect x="0" y="0" width="55.285714285714285" height="55.285714285714285" fill="#141f22"/><rect x="0" y="0" width="27.64" height="27.64" fill="#1d212f"/><polygon points="0,0 27.64,0 27.64,27.64" fill="#86628f"/><rect x="27.64" y="0" width="27.64" height="27.64" fill="#2f244b"/><path d="M 27.64 27.64 A 27.64 27.64 0 0 1  55.28 0 L 27.64 27.64 A 27.64 27.64 0 0 0 55.28 0" fill="#282240"/><rect x="0" y="27.64" width="27.64" height="27.64" fill="#c386ca"/><path d="M 0 27.64 A 27.64 27.64 0 0 1 27.64 55.28 L 0 55.28" fill="#51297c"/><rect x="27.64" y="27.64" width="27.64" height="27.64" fill="#282240"/><path d="M 27.64 27.64 A 27.64 27.64 0 0 1  55.28 55.28 L 27.64 27.64 A 27.64 27.64 0 0 0 55.28 55.28" fill="#27223e"/><rect x="55.285714285714285" y="0" width="55.285714285714285" height="55.285714285714285" fill="#141f22"/><rect x="55.29" y="0" width="27.64" height="27.64" fill="#232830"/><path d="M 55.29 0 A 27.64 27.64 0 0 1  82.93 27.64 L 55.29 0 A 27.64 27.64 0 0 0 82.93 27.64" fill="#222138"/><rect x="82.93" y="0" width="27.64" height="27.64" fill="#b87fbf"/><path d="M 82.93 27.64 A 27.64 27.64 0 0 1  110.57000000000001 0 L 110.57000000000001 27.64" fill="#302f3d"/><rect x="55.29" y="27.64" width="27.64" height="27.64" fill="#674f71"/><rect x="55.29" y="27.64" width="27.64" height="27.64" fill="#222137"/><rect x="82.93" y="27.64" width="27.64" height="27.64" fill="#b980c0"/><rect x="82.93" y="27.64" width="27.64" height="27.64" fill="#2c2346"/><rect x="110.57" y="0" width="55.29" height="55.29" fill="#ac78b3"/><rect x="110.57" y="0" width="55.29" height="55.29" fill="#432768"/><rect x="165.86" y="0" width="55.29" height="55.29" fill="#6e5479"/><polygon points="165.86,0 221.15,0 165.86,55.29" fill="#2e2349"/><rect x="221.14" y="0" width="55.29" height="55.29" fill="#352554"/><polygon points="221.14,0 276.43,55.29 221.14,55.29" fill="#ad79b5"/><rect x="276.43" y="0" width="55.29" height="55.29" fill="#86628f"/><path d="M 276.43 55.29 A 55.29 55.29 0 0 1  331.72 0 L 276.43 55.29 A 55.29 55.29 0 0 0 331.72 0" fill="#7c5c85"/><rect x="331.71" y="0" width="55.29" height="55.29" fill="#46276d"/><path d="M 331.71 55.29 A 55.29 55.29 0 0 0 387 0 L 331.71 0" fill="#a675ae"/><rect x="387" y="0" width="55.285714285714285" height="55.285714285714285" fill="#141f22"/><rect x="387" y="0" width="27.64" height="27.64" fill="#41394d"/><polygon points="387,0 414.64,0 387,27.64" fill="#393546"/><rect x="414.64" y="0" width="27.64" height="27.64" fill="#52297e"/><path d="M 414.64 0 A 27.64 27.64 0 0 1  442.28 27.64 L 414.64 0 A 27.64 27.64 0 0 0 442.28 27.64" fill="#222730"/><rect x="387" y="27.64" width="27.64" height="27.64" fill="#9d6fa5"/><path d="M 387 27.64 A 27.64 27.64 0 0 1  414.64 55.28 L 387 27.64 A 27.64 27.64 0 0 0 414.64 55.28" fill="#9e70a6"/><rect x="414.64" y="27.64" width="27.64" height="27.64" fill="#151f24"/><path d="M 414.64 27.64 A 27.64 27.64 0 0 1  442.28 55.28 L 414.64 27.64 A 27.64 27.64 0 0 0 442.28 55.28" fill="#2a2343"/><rect x="442.29" y="0" width="55.29" height="55.29" fill="#542a82"/><path d="M 442.29 0 A 55.29 55.29 0 0 1  497.58000000000004 55.29 L 442.29 0 A 55.29 55.29 0 0 0 497.58000000000004 55.29" fill="#542a81"/><rect x="497.57" y="0" width="55.29" height="55.29" fill="#342452"/><path d="M 497.57 0 A 55.29 55.29 0 0 0 552.86 55.29 L 552.86 0" fill="#6e5479"/><rect x="552.8571428571429" y="0" width="55.285714285714285" height="55.285714285714285" fill="#141f22"/><rect x="552.86" y="0" width="27.64" height="27.64" fill="#292241"/><path d="M 552.86 0 A 27.64 27.64 0 0 1  580.5 27.64 L 552.86 0 A 27.64 27.64 0 0 0 580.5 27.64" fill="#48286f"/><rect x="580.5" y="0" width="27.64" height="27.64" fill="#232239"/><rect x="580.5" y="0" width="27.64" height="27.64" fill="#a473ac"/><rect x="552.86" y="27.64" width="27.64" height="27.64" fill="#1c202e"/><rect x="552.86" y="27.64" width="27.64" height="27.64" fill="#433b4f"/><rect x="580.5" y="27.64" width="27.64" height="27.64" fill="#352553"/><path d="M 580.5 55.28 A 27.64 27.64 0 0 1  608.14 27.64 L 580.5 55.28 A 27.64 27.64 0 0 0 608.14 27.64" fill="#8f6797"/><rect x="0" y="55.29" width="55.29" height="55.29" fill="#30244c"/><path d="M 0 55.29 A 55.29 55.29 0 0 1  55.29 110.58 L 0 55.29 A 55.29 55.29 0 0 0 55.29 110.58" fill="#956b9d"/><rect x="55.285714285714285" y="55.285714285714285" width="55.285714285714285" height="55.285714285714285" fill="#141f22"/><rect x="55.29" y="55.29" width="27.64" height="27.64" fill="#2b2345"/><path d="M 55.29 55.29 A 27.64 27.64 0 0 1  82.93 82.93 L 55.29 55.29 A 27.64 27.64 0 0 0 82.93 82.93" fill="#422767"/><rect x="82.93" y="55.29" width="27.64" height="27.64" fill="#7d5c86"/><path d="M 82.93 55.29 A 27.64 27.64 0 0 1  110.57000000000001 82.93 L 82.93 55.29 A 27.64 27.64 0 0 0 110.57000000000001 82.93" fill="#2a2342"/><rect x="55.29" y="82.93" width="27.64" height="27.64" fill="#342451"/><polygon points="55.29,82.93 82.93,110.57000000000001 55.29,110.57000000000001" fill="#ad79b5"/><rect x="82.93" y="82.93" width="27.64" height="27.64" fill="#4f415a"/><rect x="82.93" y="82.93" width="27.64" height="27.64" fill="#8e6797"/><rect x="110.57" y="55.29" width="55.29" height="55.29" fill="#352553"/><path d="M 110.57 55.29 A 55.29 55.29 0 0 0 165.85999999999999 110.58 L 165.85999999999999 55.29" fill="#483d54"/><rect x="165.86" y="55.29" width="55.29" height="55.29" fill="#192227"/><rect x="165.86" y="55.29" width="55.29" height="55.29" fill="#a675ae"/><rect x="221.14285714285714" y="55.285714285714285" width="55.285714285714285" height="55.285714285714285" fill="#141f22"/><rect x="221.14" y="55.29" width="27.64" height="27.64" fill="#522a7f"/><path d="M 221.14 82.93 A 27.64 27.64 0 0 1  248.77999999999997 55.29 L 221.14 82.93 A 27.64 27.64 0 0 0 248.77999999999997 55.29" fill="#c788cd"/><rect x="248.79" y="55.29" width="27.64" height="27.64" fill="#192029"/><path d="M 248.79 55.29 A 27.64 27.64 0 0 1  276.43 82.93 L 248.79 55.29 A 27.64 27.64 0 0 0 276.43 82.93" fill="#785a82"/><rect x="221.14" y="82.93" width="27.64" height="27.64" fill="#162024"/><path d="M 221.14 110.57000000000001 A 27.64 27.64 0 0 0 248.77999999999997 82.93 L 221.14 82.93" fill="#9e70a6"/><rect x="248.79" y="82.93" width="27.64" height="27.64" fill="#372556"/><rect x="248.79" y="82.93" width="27.64" height="27.64" fill="#1e2130"/><rect x="276.43" y="55.29" width="55.29" height="55.29" fill="#2d2348"/><path d="M 276.43 110.58 A 55.29 55.29 0 0 1  331.72 55.29 L 276.43 110.58 A 55.29 55.29 0 0 0 331.72 55.29" fill="#2d2347"/><rect x="331.71" y="55.29" width="55.29" height="55.29" fill="#352554"/><rect x="331.71" y="55.29" width="55.29" height="55.29" fill="#19202a"/><rect x="387" y="55.29" width="55.29" height="55.29" fill="#c587cb"/><path d="M 387 55.29 A 55.29 55.29 0 0 1  442.29 110.58 L 387 55.29 A 55.29 55.29 0 0 0 442.29 110.58" fill="#564661"/><rect x="442.2857142857143" y="55.285714285714285" width="55.285714285714285" height="55.285714285714285" fill="#141f22"/><rect x="442.29" y="55.29" width="27.64" height="27.64" fill="#8d6696"/><polygon points="442.29,55.29 469.93,82.93 442.29,82.93" fill="#86628f"/><rect x="469.93" y="55.29" width="27.64" height="27.64" fill="#4f297b"/><rect x="469.93" y="55.29" width="27.64" height="27.64" fill="#956a9d"/><rect x="442.29" y="82.93" width="27.64" height="27.64" fill="#b47dbb"/><path d="M 442.29 110.57000000000001 A 27.64 27.64 0 0 1  469.93 82.93 L 469.93 110.57000000000001" fill="#31244d"/><rect x="469.93" y="82.93" width="27.64" height="27.64" fill="#393545"/><path d="M 469.93 110.57000000000001 A 27.64 27.64 0 0 1  497.57 82.93 L 497.57 110.57000000000001" fill="#443b50"/><rect x="497.57142857142856" y="55.285714285714285" width="55.285714285714285" height="55.285714285714285" fill="#141f22"/><rect x="497.57" y="55.29" width="27.64" height="27.64" fill="#4a2872"/><path d="M 497.57 82.93 A 27.64 27.64 0 0 1  525.21 55.29 L 497.57 82.93 A 27.64 27.64 0 0 0 525.21 55.29" fill="#1f2132"/><rect x="525.21" y="55.29" width="27.64" height="27.64" fill="#422766"/><path d="M 525.21 55.29 A 27.64 27.64 0 0 0 552.85 82.93 L 552.85 55.29" fill="#222137"/><rect x="497.57" y="82.93" width="27.64" height="27.64" fill="#c385c9"/><rect x="497.57" y="82.93" width="27.64" height="27.64" fill="#532a80"/><rect x="525.21" y="82.93" width="27.64" height="27.64" fill="#84618d"/><path d="M 525.21 110.57000000000001 A 27.64 27.64 0 0 1  552.85 82.93 L 525.21 110.57000000000001 A 27.64 27.64 0 0 0 552.85 82.93" fill="#3b265d"/><rect x="552.8571428571429" y="55.285714285714285" width="55.285714285714285" height="55.285714285714285" fill="#141f22"/><rect x="552.86" y="55.29" width="27.64" height="27.64" fill="#232831"/><rect x="552.86" y="55.29" width="27.64" height="27.64" fill="#654f70"/><rect x="580.5" y="55.29" width="27.64" height="27.64" fill="#3c265e"/><rect x="580.5" y="55.29" width="27.64" height="27.64" fill="#d28ed8"/><rect x="552.86" y="82.93" width="27.64" height="27.64" fill="#ce8cd4"/><polygon points="552.86,82.93 580.5,82.93 580.5,110.57000000000001" fill="#b47dbb"/><rect x="580.5" y="82.93" width="27.64" height="27.64" fill="#9a6ea3"/><rect x="580.5" y="82.93" width="27.64" height="27.64" fill="#3c265e"/><rect x="0" y="110.57" width="55.29" height="55.29" fill="#4d2977"/><path d="M 0 165.85999999999999 A 55.29 55.29 0 0 1  55.29 110.57 L 55.29 165.85999999999999" fill="#685072"/><rect x="55.285714285714285" y="110.57142857142857" width="55.285714285714285" height="55.285714285714285" fill="#141f22"/><rect x="55.29" y="110.57" width="27.64" height="27.64" fill="#c989d0"/><path d="M 55.29 110.57 A 27.64 27.64 0 0 1  82.93 138.20999999999998 L 55.29 110.57 A 27.64 27.64 0 0 0 82.93 138.20999999999998" fill="#443b50"/><rect x="82.93" y="110.57" width="27.64" height="27.64" fill="#c486cb"/><path d="M 82.93 110.57 A 27.64 27.64 0 0 1 110.57000000000001 138.20999999999998 L 82.93 138.20999999999998" fill="#2b2345"/><rect x="55.29" y="138.21" width="27.64" height="27.64" fill="#212136"/><path d="M 55.29 165.85000000000002 A 27.64 27.64 0 0 1  82.93 138.21 L 55.29 165.85000000000002 A 27.64 27.64 0 0 0 82.93 138.21" fill="#162024"/><rect x="82.93" y="138.21" width="27.64" height="27.64" fill="#262a34"/><rect x="82.93" y="138.21" width="27.64" height="27.64" fill="#a675ae"/><rect x="110.57142857142857" y="110.57142857142857" width="55.285714285714285" height="55.285714285714285" fill="#141f22"/><rect x="110.57" y="110.57" width="27.64" height="27.64" fill="#161f25"/><path d="M 110.57 110.57 A 27.64 27.64 0 0 1  138.20999999999998 138.20999999999998 L 110.57 110.57 A 27.64 27.64 0 0 0 138.20999999999998 138.20999999999998" fill="#4c2875"/><rect x="138.21" y="110.57" width="27.64" height="27.64" fill="#4b2874"/><polygon points="138.21,110.57 165.85000000000002,138.20999999999998 138.21,138.20999999999998" fill="#b37cbb"/><rect x="110.57" y="138.21" width="27.64" height="27.64" fill="#392559"/><polygon points="138.20999999999998,138.21 138.20999999999998,165.85000000000002 110.57,165.85000000000002" fill="#45276c"/><rect x="138.21" y="138.21" width="27.64" height="27.64" fill="#c788ce"/><path d="M 138.21 165.85000000000002 A 27.64 27.64 0 0 1  165.85000000000002 138.21 L 138.21 165.85000000000002 A 27.64 27.64 0 0 0 165.85000000000002 138.21" fill="#4f2979"/><rect x="165.86" y="110.57" width="55.29" height="55.29" fill="#362555"/><path d="M 165.86 165.85999999999999 A 55.29 55.29 0 0 0 221.15 110.57 L 165.86 110.57" fill="#5e4a69"/><rect x="221.14285714285714" y="110.57142857142857" width="55.285714285714285" height="55.285714285714285" fill="#141f22"/><rect x="221.14" y="110.57" width="27.64" height="27.64" fill="#7a5b84"/><path d="M 221.14 138.20999999999998 A 27.64 27.64 0 0 1  248.77999999999997 110.57 L 221.14 138.20999999999998 A 27.64 27.64 0 0 0 248.77999999999997 110.57" fill="#242239"/><rect x="248.79" y="110.57" width="27.64" height="27.64" fill="#162024"/><polygon points="248.79,110.57 276.43,110.57 248.79,138.20999999999998" fill="#4b2874"/><rect x="221.14" y="138.21" width="27.64" height="27.64" fill="#4c2875"/><path d="M 221.14 165.85000000000002 A 27.64 27.64 0 0 1  248.77999999999997 138.21 L 221.14 165.85000000000002 A 27.64 27.64 0 0 0 248.77999999999997 138.21" fill="#532a81"/><rect x="248.79" y="138.21" width="27.64" height="27.64" fill="#2f244b"/><rect x="248.79" y="138.21" width="27.64" height="27.64" fill="#7c5c86"/><rect x="276.42857142857144" y="110.57142857142857" width="55.285714285714285" height="55.285714285714285" fill="#141f22"/><rect x="276.43" y="110.57" width="27.64" height="27.64" fill="#45276b"/><path d="M 276.43 110.57 A 27.64 27.64 0 0 0 304.07 138.20999999999998 L 304.07 110.57" fill="#422766"/><rect x="304.07" y="110.57" width="27.64" height="27.64" fill="#4f297a"/><polygon points="304.07,110.57 331.71,138.20999999999998 304.07,138.20999999999998" fill="#6b5276"/><rect x="276.43" y="138.21" width="27.64" height="27.64" fill="#83608c"/><rect x="276.43" y="138.21" width="27.64" height="27.64" fill="#423a4e"/><rect x="304.07" y="138.21" width="27.64" height="27.64" fill="#4e415a"/><rect x="304.07" y="138.21" width="27.64" height="27.64" fill="#996da2"/><rect x="331.7142857142857" y="110.57142857142857" width="55.285714285714285" height="55.285714285714285" fill="#141f22"/><rect x="331.71" y="110.57" width="27.64" height="27.64" fill="#52435d"/><path d="M 331.71 138.20999999999998 A 27.64 27.64 0 0 1  359.34999999999997 110.57 L 331.71 138.20999999999998 A 27.64 27.64 0 0 0 359.34999999999997 110.57" fill="#32303e"/><rect x="359.36" y="110.57" width="27.64" height="27.64" fill="#292341"/><rect x="359.36" y="110.57" width="27.64" height="27.64" fill="#4a2873"/><rect x="331.71" y="138.21" width="27.64" height="27.64" fill="#3e2660"/><rect x="331.71" y="138.21" width="27.64" height="27.64" fill="#4a2872"/><rect x="359.36" y="138.21" width="27.64" height="27.64" fill="#c184c7"/><path d="M 359.36 138.21 A 27.64 27.64 0 0 1  387 165.85000000000002 L 359.36 138.21 A 27.64 27.64 0 0 0 387 165.85000000000002" fill="#4a2873"/><rect x="387" y="110.57" width="55.29" height="55.29" fill="#19202a"/><path d="M 387 165.85999999999999 A 55.29 55.29 0 0 1  442.29 110.57 L 387 165.85999999999999 A 55.29 55.29 0 0 0 442.29 110.57" fill="#4b2874"/><rect x="442.29" y="110.57" width="55.29" height="55.29" fill="#402664"/><path d="M 442.29 165.85999999999999 A 55.29 55.29 0 0 0 497.58000000000004 110.57 L 442.29 110.57" fill="#552a83"/><rect x="497.57142857142856" y="110.57142857142857" width="55.285714285714285" height="55.285714285714285" fill="#141f22"/><rect x="497.57" y="110.57" width="27.64" height="27.64" fill="#27223e"/><polygon points="525.21,110.57 525.21,138.20999999999998 497.57,138.20999999999998" fill="#242831"/><rect x="525.21" y="110.57" width="27.64" height="27.64" fill="#272a34"/><path d="M 525.21 138.20999999999998 A 27.64 27.64 0 0 0 552.85 110.57 L 525.21 110.57" fill="#ad79b5"/><rect x="497.57" y="138.21" width="27.64" height="27.64" fill="#cf8cd5"/><rect x="497.57" y="138.21" width="27.64" height="27.64" fill="#412765"/><rect x="525.21" y="138.21" width="27.64" height="27.64" fill="#422766"/><polygon points="525.21,138.21 552.85,138.21 552.85,165.85000000000002" fill="#584763"/><rect x="552.86" y="110.57" width="55.29" height="55.29" fill="#946a9c"/><rect x="552.86" y="110.57" width="55.29" height="55.29" fill="#282b35"/><rect x="0" y="165.85714285714286" width="55.285714285714285" height="55.285714285714285" fill="#141f22"/><rect x="0" y="165.86" width="27.64" height="27.64" fill="#1b202d"/><rect x="0" y="165.86" width="27.64" height="27.64" fill="#522a7f"/><rect x="27.64" y="165.86" width="27.64" height="27.64" fill="#1d2130"/><path d="M 27.64 193.5 A 27.64 27.64 0 0 0 55.28 165.86 L 27.64 165.86" fill="#532a80"/><rect x="0" y="193.5" width="27.64" height="27.64" fill="#432768"/><rect x="0" y="193.5" width="27.64" height="27.64" fill="#ae79b6"/><rect x="27.64" y="193.5" width="27.64" height="27.64" fill="#3d265f"/><rect x="27.64" y="193.5" width="27.64" height="27.64" fill="#a976b1"/><rect x="55.285714285714285" y="165.85714285714286" width="55.285714285714285" height="55.285714285714285" fill="#141f22"/><rect x="55.29" y="165.86" width="27.64" height="27.64" fill="#c084c7"/><path d="M 55.29 165.86 A 27.64 27.64 0 0 1 82.93 193.5 L 55.29 193.5" fill="#6c5377"/><rect x="82.93" y="165.86" width="27.64" height="27.64" fill="#2b2344"/><polygon points="82.93,165.86 110.57000000000001,165.86 110.57000000000001,193.5" fill="#b57dbc"/><rect x="55.29" y="193.5" width="27.64" height="27.64" fill="#c084c7"/><rect x="55.29" y="193.5" width="27.64" height="27.64" fill="#30244c"/><rect x="82.93" y="193.5" width="27.64" height="27.64" fill="#172125"/><path d="M 82.93 193.5 A 27.64 27.64 0 0 0 110.57000000000001 221.14 L 110.57000000000001 193.5" fill="#4e2979"/><rect x="110.57142857142857" y="165.85714285714286" width="55.285714285714285" height="55.285714285714285" fill="#141f22"/><rect x="110.57" y="165.86" width="27.64" height="27.64" fill="#1d212f"/><path d="M 110.57 165.86 A 27.64 27.64 0 0 0 138.20999999999998 193.5 L 138.20999999999998 165.86" fill="#302f3d"/><rect x="138.21" y="165.86" width="27.64" height="27.64" fill="#bc81c3"/><path d="M 138.21 193.5 A 27.64 27.64 0 0 1  165.85000000000002 165.86 L 138.21 193.5 A 27.64 27.64 0 0 0 165.85000000000002 165.86" fill="#8b6594"/><rect x="110.57" y="193.5" width="27.64" height="27.64" fill="#2d2348"/><path d="M 110.57 193.5 A 27.64 27.64 0 0 1  138.20999999999998 221.14 L 110.57 193.5 A 27.64 27.64 0 0 0 138.20999999999998 221.14" fill="#cf8dd5"/><rect x="138.21" y="193.5" width="27.64" height="27.64" fill="#171f26"/><path d="M 138.21 221.14 A 27.64 27.64 0 0 1  165.85000000000002 193.5 L 138.21 221.14 A 27.64 27.64 0 0 0 165.85000000000002 193.5" fill="#4d2978"/><rect x="165.86" y="165.86" width="55.29" height="55.29" fill="#644e6e"/><polygon points="165.86,165.86 221.15,165.86 221.15,221.15" fill="#52297e"/><rect x="221.14285714285714" y="165.85714285714286" width="55.285714285714285" height="55.285714285714285" fill="#141f22"/><rect x="221.14" y="165.86" width="27.64" height="27.64" fill="#594865"/><polygon points="221.14,165.86 248.77999999999997,165.86 221.14,193.5" fill="#47286e"/><rect x="248.79" y="165.86" width="27.64" height="27.64" fill="#8e6697"/><path d="M 248.79 165.86 A 27.64 27.64 0 0 1  276.43 193.5 L 248.79 165.86 A 27.64 27.64 0 0 0 276.43 193.5" fill="#4a3e55"/><rect x="221.14" y="193.5" width="27.64" height="27.64" fill="#5f4b6a"/><polygon points="221.14,193.5 248.77999999999997,193.5 248.77999999999997,221.14" fill="#493e55"/><rect x="248.79" y="193.5" width="27.64" height="27.64" fill="#212135"/><path d="M 248.79 221.14 A 27.64 27.64 0 0 1  276.43 193.5 L 248.79 221.14 A 27.64 27.64 0 0 0 276.43 193.5" fill="#5c4967"/><rect x="276.42857142857144" y="165.85714285714286" width="55.285714285714285" height="55.285714285714285" fill="#141f22"/><rect x="276.43" y="165.86" width="27.64" height="27.64" fill="#332451"/><path d="M 276.43 193.5 A 27.64 27.64 0 0 1  304.07 165.86 L 276.43 193.5 A 27.64 27.64 0 0 0 304.07 165.86" fill="#522a7f"/><rect x="304.07" y="165.86" width="27.64" height="27.64" fill="#4e2979"/><path d="M 304.07 193.5 A 27.64 27.64 0 0 1  331.71 165.86 L 331.71 193.5" fill="#a172a9"/><rect x="276.43" y="193.5" width="27.64" height="27.64" fill="#ae79b6"/><path d="M 276.43 221.14 A 27.64 27.64 0 0 1  304.07 193.5 L 304.07 221.14" fill="#362554"/><rect x="304.07" y="193.5" width="27.64" height="27.64" fill="#4b2874"/><path d="M 304.07 221.14 A 27.64 27.64 0 0 0 331.71 193.5 L 304.07 193.5" fill="#956b9d"/><rect x="331.7142857142857" y="165.85714285714286" width="55.285714285714285" height="55.285714285714285" fill="#141f22"/><rect x="331.71" y="165.86" width="27.64" height="27.64" fill="#3c3648"/><rect x="331.71" y="165.86" width="27.64" height="27.64" fill="#54445f"/><rect x="359.36" y="165.86" width="27.64" height="27.64" fill="#3c3648"/><path d="M 359.36 165.86 A 27.64 27.64 0 0 1 387 193.5 L 359.36 193.5" fill="#b37cba"/><rect x="331.71" y="193.5" width="27.64" height="27.64" fill="#492871"/><path d="M 331.71 221.14 A 27.64 27.64 0 0 1  359.34999999999997 193.5 L 331.71 221.14 A 27.64 27.64 0 0 0 359.34999999999997 193.5" fill="#986da1"/><rect x="359.36" y="193.5" width="27.64" height="27.64" fill="#31244d"/><rect x="359.36" y="193.5" width="27.64" height="27.64" fill="#624d6d"/><rect x="387" y="165.85714285714286" width="55.285714285714285" height="55.285714285714285" fill="#141f22"/><rect x="387" y="165.86" width="27.64" height="27.64" fill="#412765"/><polygon points="387,165.86 414.64,165.86 387,193.5" fill="#232830"/><rect x="414.64" y="165.86" width="27.64" height="27.64" fill="#492872"/><path d="M 414.64 165.86 A 27.64 27.64 0 0 1  442.28 193.5 L 414.64 165.86 A 27.64 27.64 0 0 0 442.28 193.5" fill="#141f23"/><rect x="387" y="193.5" width="27.64" height="27.64" fill="#9a6ea3"/><rect x="387" y="193.5" width="27.64" height="27.64" fill="#86628f"/><rect x="414.64" y="193.5" width="27.64" height="27.64" fill="#594764"/><rect x="414.64" y="193.5" width="27.64" height="27.64" fill="#554560"/><rect x="442.29" y="165.86" width="55.29" height="55.29" fill="#52297e"/><path d="M 442.29 165.86 A 55.29 55.29 0 0 0 497.58000000000004 221.15 L 497.58000000000004 165.86" fill="#4d2977"/><rect x="497.57" y="165.86" width="55.29" height="55.29" fill="#32244f"/><path d="M 497.57 165.86 A 55.29 55.29 0 0 1  552.86 221.15 L 497.57 165.86 A 55.29 55.29 0 0 0 552.86 221.15" fill="#6b5275"/><rect x="552.86" y="165.86" width="55.29" height="55.29" fill="#654e6f"/><polygon points="552.86,165.86 608.15,221.15 552.86,221.15" fill="#785a82"/><rect x="0" y="221.14" width="55.29" height="55.29" fill="#21272e"/><polygon points="0,221.14 55.29,276.43 0,276.43" fill="#54445f"/><rect x="55.285714285714285" y="221.14285714285714" width="55.285714285714285" height="55.285714285714285" fill="#141f22"/><rect x="55.29" y="221.14" width="27.64" height="27.64" fill="#3c265d"/><path d="M 55.29 248.77999999999997 A 27.64 27.64 0 0 0 82.93 221.14 L 55.29 221.14" fill="#53445e"/><rect x="82.93" y="221.14" width="27.64" height="27.64" fill="#212135"/><rect x="82.93" y="221.14" width="27.64" height="27.64" fill="#332450"/><rect x="55.29" y="248.79" width="27.64" height="27.64" fill="#624d6d"/><polygon points="82.93,248.79 82.93,276.43 55.29,276.43" fill="#542a82"/><rect x="82.93" y="248.79" width="27.64" height="27.64" fill="#9a6ea2"/><path d="M 82.93 248.79 A 27.64 27.64 0 0 1  110.57000000000001 276.43 L 82.93 248.79 A 27.64 27.64 0 0 0 110.57000000000001 276.43" fill="#362555"/><rect x="110.57142857142857" y="221.14285714285714" width="55.285714285714285" height="55.285714285714285" fill="#141f22"/><rect x="110.57" y="221.14" width="27.64" height="27.64" fill="#a574ad"/><polygon points="138.20999999999998,221.14 138.20999999999998,248.77999999999997 110.57,248.77999999999997" fill="#72567c"/><rect x="138.21" y="221.14" width="27.64" height="27.64" fill="#8b6594"/><path d="M 138.21 248.77999999999997 A 27.64 27.64 0 0 1  165.85000000000002 221.14 L 138.21 248.77999999999997 A 27.64 27.64 0 0 0 165.85000000000002 221.14" fill="#1f2132"/><rect x="110.57" y="248.79" width="27.64" height="27.64" fill="#4b2874"/><path d="M 110.57 248.79 A 27.64 27.64 0 0 1 138.20999999999998 276.43 L 110.57 276.43" fill="#7d5c86"/><rect x="138.21" y="248.79" width="27.64" height="27.64" fill="#252932"/><polygon points="138.21,248.79 165.85000000000002,248.79 165.85000000000002,276.43" fill="#392559"/><rect x="165.85714285714286" y="221.14285714285714" width="55.285714285714285" height="55.285714285714285" fill="#141f22"/><rect x="165.86" y="221.14" width="27.64" height="27.64" fill="#202133"/><path d="M 165.86 248.77999999999997 A 27.64 27.64 0 0 1  193.5 221.14 L 193.5 248.77999999999997" fill="#1d202f"/><rect x="193.5" y="221.14" width="27.64" height="27.64" fill="#a272aa"/><path d="M 193.5 221.14 A 27.64 27.64 0 0 1  221.14 248.77999999999997 L 193.5 221.14 A 27.64 27.64 0 0 0 221.14 248.77999999999997" fill="#4a2873"/><rect x="165.86" y="248.79" width="27.64" height="27.64" fill="#192227"/><path d="M 165.86 276.43 A 27.64 27.64 0 0 0 193.5 248.79 L 165.86 248.79" fill="#522a7f"/><rect x="193.5" y="248.79" width="27.64" height="27.64" fill="#3a255a"/><rect x="193.5" y="248.79" width="27.64" height="27.64" fill="#26223c"/><rect x="221.14285714285714" y="221.14285714285714" width="55.285714285714285" height="55.285714285714285" fill="#141f22"/><rect x="221.14" y="221.14" width="27.64" height="27.64" fill="#4e2978"/><path d="M 221.14 221.14 A 27.64 27.64 0 0 0 248.77999999999997 248.77999999999997 L 248.77999999999997 221.14" fill="#85618e"/><rect x="248.79" y="221.14" width="27.64" height="27.64" fill="#222136"/><rect x="248.79" y="221.14" width="27.64" height="27.64" fill="#554560"/><rect x="221.14" y="248.79" width="27.64" height="27.64" fill="#9f71a8"/><path d="M 221.14 248.79 A 27.64 27.64 0 0 0 248.77999999999997 276.43 L 248.77999999999997 248.79" fill="#71567b"/><rect x="248.79" y="248.79" width="27.64" height="27.64" fill="#31303e"/><path d="M 248.79 248.79 A 27.64 27.64 0 0 0 276.43 276.43 L 276.43 248.79" fill="#53445e"/><rect x="276.42857142857144" y="221.14285714285714" width="55.285714285714285" height="55.285714285714285" fill="#141f22"/><rect x="276.43" y="221.14" width="27.64" height="27.64" fill="#825f8b"/><rect x="276.43" y="221.14" width="27.64" height="27.64" fill="#b87fbf"/><rect x="304.07" y="221.14" width="27.64" height="27.64" fill="#222730"/><rect x="304.07" y="221.14" width="27.64" height="27.64" fill="#373444"/><rect x="276.43" y="248.79" width="27.64" height="27.64" fill="#423a4e"/><rect x="276.43" y="248.79" width="27.64" height="27.64" fill="#72567c"/><rect x="304.07" y="248.79" width="27.64" height="27.64" fill="#3c265d"/><rect x="304.07" y="248.79" width="27.64" height="27.64" fill="#442769"/><rect x="331.7142857142857" y="221.14285714285714" width="55.285714285714285" height="55.285714285714285" fill="#141f22"/><rect x="331.71" y="221.14" width="27.64" height="27.64" fill="#74577e"/><path d="M 331.71 248.77999999999997 A 27.64 27.64 0 0 1  359.34999999999997 221.14 L 359.34999999999997 248.77999999999997" fill="#412766"/><rect x="359.36" y="221.14" width="27.64" height="27.64" fill="#9c6fa5"/><path d="M 359.36 248.77999999999997 A 27.64 27.64 0 0 1  387 221.14 L 387 248.77999999999997" fill="#956b9e"/><rect x="331.71" y="248.79" width="27.64" height="27.64" fill="#654f70"/><polygon points="331.71,248.79 359.34999999999997,248.79 359.34999999999997,276.43" fill="#2e2348"/><rect x="359.36" y="248.79" width="27.64" height="27.64" fill="#4f297a"/><path d="M 359.36 248.79 A 27.64 27.64 0 0 0 387 276.43 L 387 248.79" fill="#212136"/><rect x="387" y="221.14285714285714" width="55.285714285714285" height="55.285714285714285" fill="#141f22"/><rect x="387" y="221.14" width="27.64" height="27.64" fill="#50297b"/><polygon points="387,221.14 414.64,221.14 387,248.77999999999997" fill="#654e6f"/><rect x="414.64" y="221.14" width="27.64" height="27.64" fill="#cf8dd6"/><path d="M 414.64 248.77999999999997 A 27.64 27.64 0 0 0 442.28 221.14 L 414.64 221.14" fill="#262a34"/><rect x="387" y="248.79" width="27.64" height="27.64" fill="#362555"/><path d="M 387 248.79 A 27.64 27.64 0 0 1  414.64 276.43 L 387 248.79 A 27.64 27.64 0 0 0 414.64 276.43" fill="#a071a8"/><rect x="414.64" y="248.79" width="27.64" height="27.64" fill="#d08dd6"/><polygon points="414.64,248.79 442.28,248.79 414.64,276.43" fill="#3a255a"/><rect x="442.2857142857143" y="221.14285714285714" width="55.285714285714285" height="55.285714285714285" fill="#141f22"/><rect x="442.29" y="221.14" width="27.64" height="27.64" fill="#54455f"/><rect x="442.29" y="221.14" width="27.64" height="27.64" fill="#51297d"/><rect x="469.93" y="221.14" width="27.64" height="27.64" fill="#402663"/><path d="M 469.93 248.77999999999997 A 27.64 27.64 0 0 1  497.57 221.14 L 497.57 248.77999999999997" fill="#ba80c1"/><rect x="442.29" y="248.79" width="27.64" height="27.64" fill="#27223e"/><rect x="442.29" y="248.79" width="27.64" height="27.64" fill="#5f4b6a"/><rect x="469.93" y="248.79" width="27.64" height="27.64" fill="#32244f"/><path d="M 469.93 248.79 A 27.64 27.64 0 0 1  497.57 276.43 L 469.93 248.79 A 27.64 27.64 0 0 0 497.57 276.43" fill="#30244b"/><rect x="497.57" y="221.14" width="55.29" height="55.29" fill="#4b3f56"/><polygon points="497.57,221.14 552.86,276.43 497.57,276.43" fill="#aa77b2"/><rect x="552.8571428571429" y="221.14285714285714" width="55.285714285714285" height="55.285714285714285" fill="#141f22"/><rect x="552.86" y="221.14" width="27.64" height="27.64" fill="#4f297b"/><rect x="552.86" y="221.14" width="27.64" height="27.64" fill="#282240"/><rect x="580.5" y="221.14" width="27.64" height="27.64" fill="#2a2343"/><rect x="580.5" y="221.14" width="27.64" height="27.64" fill="#4a2873"/><rect x="552.86" y="248.79" width="27.64" height="27.64" fill="#986da1"/><polygon points="580.5,248.79 580.5,276.43 552.86,276.43" fill="#151f24"/><rect x="580.5" y="248.79" width="27.64" height="27.64" fill="#4e2979"/><rect x="580.5" y="248.79" width="27.64" height="27.64" fill="#876290"/><rect x="0" y="276.42857142857144" width="55.285714285714285" height="55.285714285714285" fill="#141f22"/><rect x="0" y="276.43" width="27.64" height="27.64" fill="#a272aa"/><path d="M 0 276.43 A 27.64 27.64 0 0 1  27.64 304.07 L 0 276.43 A 27.64 27.64 0 0 0 27.64 304.07" fill="#2e2349"/><rect x="27.64" y="276.43" width="27.64" height="27.64" fill="#af7ab7"/><path d="M 27.64 276.43 A 27.64 27.64 0 0 1 55.28 304.07 L 27.64 304.07" fill="#242831"/><rect x="0" y="304.07" width="27.64" height="27.64" fill="#1f252c"/><path d="M 0 304.07 A 27.64 27.64 0 0 1 27.64 331.71 L 0 331.71" fill="#2a2c37"/><rect x="27.64" y="304.07" width="27.64" height="27.64" fill="#584763"/><rect x="27.64" y="304.07" width="27.64" height="27.64" fill="#ce8cd4"/><rect x="55.285714285714285" y="276.42857142857144" width="55.285714285714285" height="55.285714285714285" fill="#141f22"/><rect x="55.29" y="276.43" width="27.64" height="27.64" fill="#483e54"/><path d="M 55.29 276.43 A 27.64 27.64 0 0 1  82.93 304.07 L 55.29 276.43 A 27.64 27.64 0 0 0 82.93 304.07" fill="#151f23"/><rect x="82.93" y="276.43" width="27.64" height="27.64" fill="#2a2c37"/><rect x="82.93" y="276.43" width="27.64" height="27.64" fill="#4b2875"/><rect x="55.29" y="304.07" width="27.64" height="27.64" fill="#172125"/><rect x="55.29" y="304.07" width="27.64" height="27.64" fill="#232239"/><rect x="82.93" y="304.07" width="27.64" height="27.64" fill="#212135"/><polygon points="110.57000000000001,304.07 110.57000000000001,331.71 82.93,331.71" fill="#373444"/><rect x="110.57142857142857" y="276.42857142857144" width="55.285714285714285" height="55.285714285714285" fill="#141f22"/><rect x="110.57" y="276.43" width="27.64" height="27.64" fill="#3f2661"/><rect x="110.57" y="276.43" width="27.64" height="27.64" fill="#594864"/><rect x="138.21" y="276.43" width="27.64" height="27.64" fill="#2c2346"/><path d="M 138.21 304.07 A 27.64 27.64 0 0 1  165.85000000000002 276.43 L 165.85000000000002 304.07" fill="#8c6595"/><rect x="110.57" y="304.07" width="27.64" height="27.64" fill="#202135"/><path d="M 110.57 331.71 A 27.64 27.64 0 0 1  138.20999999999998 304.07 L 138.20999999999998 331.71" fill="#9d6fa5"/><rect x="138.21" y="304.07" width="27.64" height="27.64" fill="#161f25"/><rect x="138.21" y="304.07" width="27.64" height="27.64" fill="#976c9f"/><rect x="165.86" y="276.43" width="55.29" height="55.29" fill="#795a83"/><path d="M 165.86 331.72 A 55.29 55.29 0 0 1  221.15 276.43 L 165.86 331.72 A 55.29 55.29 0 0 0 221.15 276.43" fill="#b77fbe"/><rect x="221.14285714285714" y="276.42857142857144" width="55.285714285714285" height="55.285714285714285" fill="#141f22"/><rect x="221.14" y="276.43" width="27.64" height="27.64" fill="#2a2c37"/><path d="M 221.14 304.07 A 27.64 27.64 0 0 1  248.77999999999997 276.43 L 221.14 304.07 A 27.64 27.64 0 0 0 248.77999999999997 276.43" fill="#373444"/><rect x="248.79" y="276.43" width="27.64" height="27.64" fill="#3a255a"/><path d="M 248.79 276.43 A 27.64 27.64 0 0 1  276.43 304.07 L 248.79 276.43 A 27.64 27.64 0 0 0 276.43 304.07" fill="#7c5c86"/><rect x="221.14" y="304.07" width="27.64" height="27.64" fill="#2a2343"/><polygon points="221.14,304.07 248.77999999999997,304.07 248.77999999999997,331.71" fill="#372556"/><rect x="248.79" y="304.07" width="27.64" height="27.64" fill="#c788ce"/><rect x="248.79" y="304.07" width="27.64" height="27.64" fill="#32244f"/><rect x="276.42857142857144" y="276.42857142857144" width="55.285714285714285" height="55.285714285714285" fill="#141f22"/><rect x="276.43" y="276.43" width="27.64" height="27.64" fill="#ae79b6"/><path d="M 276.43 276.43 A 27.64 27.64 0 0 0 304.07 304.07 L 304.07 276.43" fill="#30244c"/><rect x="304.07" y="276.43" width="27.64" height="27.64" fill="#3f2662"/><rect x="304.07" y="276.43" width="27.64" height="27.64" fill="#30244b"/><rect x="276.43" y="304.07" width="27.64" height="27.64" fill="#413a4d"/><path d="M 276.43 331.71 A 27.64 27.64 0 0 0 304.07 304.07 L 276.43 304.07" fill="#2a2342"/><rect x="304.07" y="304.07" width="27.64" height="27.64" fill="#584763"/><path d="M 304.07 331.71 A 27.64 27.64 0 0 1  331.71 304.07 L 304.07 331.71 A 27.64 27.64 0 0 0 331.71 304.07" fill="#73577d"/><rect x="331.7142857142857" y="276.42857142857144" width="55.285714285714285" height="55.285714285714285" fill="#141f22"/><rect x="331.71" y="276.43" width="27.64" height="27.64" fill="#492871"/><rect x="331.71" y="276.43" width="27.64" height="27.64" fill="#19202a"/><rect x="359.36" y="276.43" width="27.64" height="27.64" fill="#302f3d"/><rect x="359.36" y="276.43" width="27.64" height="27.64" fill="#1f2132"/><rect x="331.71" y="304.07" width="27.64" height="27.64" fill="#5d4a68"/><polygon points="331.71,304.07 359.34999999999997,304.07 359.34999999999997,331.71" fill="#342451"/><rect x="359.36" y="304.07" width="27.64" height="27.64" fill="#2c2347"/><path d="M 359.36 304.07 A 27.64 27.64 0 0 1  387 331.71 L 359.36 304.07 A 27.64 27.64 0 0 0 387 331.71" fill="#272a34"/><rect x="387" y="276.43" width="55.29" height="55.29" fill="#3f2662"/><polygon points="442.29,276.43 442.29,331.72 387,331.72" fill="#765880"/><rect x="442.2857142857143" y="276.42857142857144" width="55.285714285714285" height="55.285714285714285" fill="#141f22"/><rect x="442.29" y="276.43" width="27.64" height="27.64" fill="#3d265f"/><path d="M 442.29 304.07 A 27.64 27.64 0 0 0 469.93 276.43 L 442.29 276.43" fill="#c989cf"/><rect x="469.93" y="276.43" width="27.64" height="27.64" fill="#402664"/><rect x="469.93" y="276.43" width="27.64" height="27.64" fill="#382558"/><rect x="442.29" y="304.07" width="27.64" height="27.64" fill="#20262e"/><path d="M 442.29 304.07 A 27.64 27.64 0 0 1  469.93 331.71 L 442.29 304.07 A 27.64 27.64 0 0 0 469.93 331.71" fill="#664f70"/><rect x="469.93" y="304.07" width="27.64" height="27.64" fill="#282240"/><path d="M 469.93 304.07 A 27.64 27.64 0 0 1  497.57 331.71 L 469.93 304.07 A 27.64 27.64 0 0 0 497.57 331.71" fill="#8d6696"/><rect x="497.57142857142856" y="276.42857142857144" width="55.285714285714285" height="55.285714285714285" fill="#141f22"/><rect x="497.57" y="276.43" width="27.64" height="27.64" fill="#3d265f"/><path d="M 497.57 276.43 A 27.64 27.64 0 0 0 525.21 304.07 L 525.21 276.43" fill="#d08dd6"/><rect x="525.21" y="276.43" width="27.64" height="27.64" fill="#402664"/><path d="M 525.21 276.43 A 27.64 27.64 0 0 1  552.85 304.07 L 525.21 276.43 A 27.64 27.64 0 0 0 552.85 304.07" fill="#33313f"/><rect x="497.57" y="304.07" width="27.64" height="27.64" fill="#232238"/><polygon points="497.57,304.07 525.21,304.07 525.21,331.71" fill="#4b2873"/><rect x="525.21" y="304.07" width="27.64" height="27.64" fill="#171f26"/><polygon points="552.85,304.07 552.85,331.71 525.21,331.71" fill="#be83c5"/><rect x="552.8571428571429" y="276.42857142857144" width="55.285714285714285" height="55.285714285714285" fill="#141f22"/><rect x="552.86" y="276.43" width="27.64" height="27.64" fill="#b67ebd"/><path d="M 552.86 304.07 A 27.64 27.64 0 0 1  580.5 276.43 L 552.86 304.07 A 27.64 27.64 0 0 0 580.5 276.43" fill="#3a255b"/><rect x="580.5" y="276.43" width="27.64" height="27.64" fill="#ca8ad1"/><rect x="580.5" y="276.43" width="27.64" height="27.64" fill="#342452"/><rect x="552.86" y="304.07" width="27.64" height="27.64" fill="#542a82"/><path d="M 552.86 304.07 A 27.64 27.64 0 0 1  580.5 331.71 L 552.86 304.07 A 27.64 27.64 0 0 0 580.5 331.71" fill="#552a83"/><rect x="580.5" y="304.07" width="27.64" height="27.64" fill="#182028"/><path d="M 580.5 304.07 A 27.64 27.64 0 0 0 608.14 331.71 L 608.14 304.07" fill="#232138"/><rect x="0" y="331.71" width="55.29" height="55.29" fill="#be83c5"/><path d="M 0 331.71 A 55.29 55.29 0 0 1  55.29 387 L 0 331.71 A 55.29 55.29 0 0 0 55.29 387" fill="#52435d"/><rect x="55.285714285714285" y="331.7142857142857" width="55.285714285714285" height="55.285714285714285" fill="#141f22"/><rect x="55.29" y="331.71" width="27.64" height="27.64" fill="#422766"/><rect x="55.29" y="331.71" width="27.64" height="27.64" fill="#352554"/><rect x="82.93" y="331.71" width="27.64" height="27.64" fill="#3a255b"/><polygon points="82.93,331.71 110.57000000000001,331.71 82.93,359.34999999999997" fill="#32244e"/><rect x="55.29" y="359.36" width="27.64" height="27.64" fill="#373444"/><path d="M 55.29 387 A 27.64 27.64 0 0 1  82.93 359.36 L 55.29 387 A 27.64 27.64 0 0 0 82.93 359.36" fill="#7c5c86"/><rect x="82.93" y="359.36" width="27.64" height="27.64" fill="#382557"/><path d="M 82.93 387 A 27.64 27.64 0 0 1  110.57000000000001 359.36 L 82.93 387 A 27.64 27.64 0 0 0 110.57000000000001 359.36" fill="#222137"/><rect x="110.57142857142857" y="331.7142857142857" width="55.285714285714285" height="55.285714285714285" fill="#141f22"/><rect x="110.57" y="331.71" width="27.64" height="27.64" fill="#31244d"/><rect x="110.57" y="331.71" width="27.64" height="27.64" fill="#50297b"/><rect x="138.21" y="331.71" width="27.64" height="27.64" fill="#7c5c85"/><rect x="138.21" y="331.71" width="27.64" height="27.64" fill="#272a34"/><rect x="110.57" y="359.36" width="27.64" height="27.64" fill="#442769"/><polygon points="110.57,359.36 138.20999999999998,387 110.57,387" fill="#84618e"/><rect x="138.21" y="359.36" width="27.64" height="27.64" fill="#6f5479"/><path d="M 138.21 359.36 A 27.64 27.64 0 0 1  165.85000000000002 387 L 138.21 359.36 A 27.64 27.64 0 0 0 165.85000000000002 387" fill="#171f26"/><rect x="165.85714285714286" y="331.7142857142857" width="55.285714285714285" height="55.285714285714285" fill="#141f22"/><rect x="165.86" y="331.71" width="27.64" height="27.64" fill="#5c4967"/><path d="M 165.86 331.71 A 27.64 27.64 0 0 0 193.5 359.34999999999997 L 193.5 331.71" fill="#362555"/><rect x="193.5" y="331.71" width="27.64" height="27.64" fill="#412765"/><path d="M 193.5 359.34999999999997 A 27.64 27.64 0 0 1  221.14 331.71 L 221.14 359.34999999999997" fill="#19202a"/><rect x="165.86" y="359.36" width="27.64" height="27.64" fill="#27223e"/><path d="M 165.86 387 A 27.64 27.64 0 0 1  193.5 359.36 L 165.86 387 A 27.64 27.64 0 0 0 193.5 359.36" fill="#352553"/><rect x="193.5" y="359.36" width="27.64" height="27.64" fill="#c587cc"/><rect x="193.5" y="359.36" width="27.64" height="27.64" fill="#422767"/><rect x="221.14285714285714" y="331.7142857142857" width="55.285714285714285" height="55.285714285714285" fill="#141f22"/><rect x="221.14" y="331.71" width="27.64" height="27.64" fill="#19202a"/><path d="M 221.14 359.34999999999997 A 27.64 27.64 0 0 1  248.77999999999997 331.71 L 221.14 359.34999999999997 A 27.64 27.64 0 0 0 248.77999999999997 331.71" fill="#8d6696"/><rect x="248.79" y="331.71" width="27.64" height="27.64" fill="#172125"/><path d="M 248.79 359.34999999999997 A 27.64 27.64 0 0 1  276.43 331.71 L 248.79 359.34999999999997 A 27.64 27.64 0 0 0 276.43 331.71" fill="#492871"/><rect x="221.14" y="359.36" width="27.64" height="27.64" fill="#392559"/><path d="M 221.14 359.36 A 27.64 27.64 0 0 1  248.77999999999997 387 L 221.14 359.36 A 27.64 27.64 0 0 0 248.77999999999997 387" fill="#422766"/><rect x="248.79" y="359.36" width="27.64" height="27.64" fill="#32244f"/><path d="M 248.79 359.36 A 27.64 27.64 0 0 1  276.43 387 L 248.79 359.36 A 27.64 27.64 0 0 0 276.43 387" fill="#9b6ea3"/><rect x="276.42857142857144" y="331.7142857142857" width="55.285714285714285" height="55.285714285714285" fill="#141f22"/><rect x="276.43" y="331.71" width="27.64" height="27.64" fill="#1a202b"/><path d="M 276.43 359.34999999999997 A 27.64 27.64 0 0 1  304.07 331.71 L 276.43 359.34999999999997 A 27.64 27.64 0 0 0 304.07 331.71" fill="#32244f"/><rect x="304.07" y="331.71" width="27.64" height="27.64" fill="#282240"/><rect x="304.07" y="331.71" width="27.64" height="27.64" fill="#5a4865"/><rect x="276.43" y="359.36" width="27.64" height="27.64" fill="#a574ad"/><rect x="276.43" y="359.36" width="27.64" height="27.64" fill="#1b202d"/><rect x="304.07" y="359.36" width="27.64" height="27.64" fill="#272a35"/><path d="M 304.07 359.36 A 27.64 27.64 0 0 0 331.71 387 L 331.71 359.36" fill="#1c202e"/><rect x="331.71" y="331.71" width="55.29" height="55.29" fill="#af7ab6"/><polygon points="331.71,331.71 387,331.71 387,387" fill="#1a202c"/><rect x="387" y="331.7142857142857" width="55.285714285714285" height="55.285714285714285" fill="#141f22"/><rect x="387" y="331.71" width="27.64" height="27.64" fill="#825f8b"/><path d="M 387 331.71 A 27.64 27.64 0 0 1  414.64 359.34999999999997 L 387 331.71 A 27.64 27.64 0 0 0 414.64 359.34999999999997" fill="#47286e"/><rect x="414.64" y="331.71" width="27.64" height="27.64" fill="#8b6594"/><polygon points="414.64,331.71 442.28,331.71 442.28,359.34999999999997" fill="#7b5b84"/><rect x="387" y="359.36" width="27.64" height="27.64" fill="#2a2342"/><rect x="387" y="359.36" width="27.64" height="27.64" fill="#1f2132"/><rect x="414.64" y="359.36" width="27.64" height="27.64" fill="#402664"/><path d="M 414.64 387 A 27.64 27.64 0 0 1  442.28 359.36 L 414.64 387 A 27.64 27.64 0 0 0 442.28 359.36" fill="#a775ae"/><rect x="442.2857142857143" y="331.7142857142857" width="55.285714285714285" height="55.285714285714285" fill="#141f22"/><rect x="442.29" y="331.71" width="27.64" height="27.64" fill="#83608d"/><polygon points="442.29,331.71 469.93,359.34999999999997 442.29,359.34999999999997" fill="#c184c7"/><rect x="469.93" y="331.71" width="27.64" height="27.64" fill="#7b5b85"/><rect x="469.93" y="331.71" width="27.64" height="27.64" fill="#8b6594"/><rect x="442.29" y="359.36" width="27.64" height="27.64" fill="#9a6da2"/><path d="M 442.29 359.36 A 27.64 27.64 0 0 0 469.93 387 L 469.93 359.36" fill="#51297d"/><rect x="469.93" y="359.36" width="27.64" height="27.64" fill="#24223a"/><polygon points="469.93,359.36 497.57,359.36 469.93,387" fill="#c888ce"/><rect x="497.57" y="331.71" width="55.29" height="55.29" fill="#9c6fa5"/><path d="M 497.57 387 A 55.29 55.29 0 0 0 552.86 331.71 L 497.57 331.71" fill="#50297c"/><rect x="552.86" y="331.71" width="55.29" height="55.29" fill="#392559"/><path d="M 552.86 331.71 A 55.29 55.29 0 0 1  608.15 387 L 552.86 331.71 A 55.29 55.29 0 0 0 608.15 387" fill="#2a2343"/></g></svg>