<?xml version="1.0" standalone="no"?><svg xmlns:xlink="http://www.w3.org/1999/xlink" xmlns="http://www.w3.org/2000/svg" viewBox="0 0 1920 1221.8219130103053" preserveAspectRatio="xMaxYMax slice"><g transform="scale(3.1571625659181013)"><rect x="0" y="0" width="608.1428571428571" height="387" fill="#141f22"/><rect x="0" y="0" width="55.285714285714285" height="55.285714285714285" fill="#141f22"/><rect x="0" y="0" width="27.64" height="27.64" fill="#554561"/><g transform="translate(0,0) scale(1.3820000000000001) rotate(0)"><rect width="20" height="2" fill="#182126"/><rect y="4" width="20" height="2" fill="#182126"/><rect y="8" width="20" height="2" fill="#182126"/><rect y="12" width="20" height="2" fill="#182126"/><rect y="16" width="20" height="2" fill="#182126"/></g><rect x="27.64" y="0" width="27.64" height="27.64" fill="#2a2343"/><g transform="translate(27.64,0) scale(1.3820000000000001) rotate(0)"><rect width="20" height="2" fill="#b27cba"/><rect y="4" width="20" height="2" fill="#b27cba"/><rect y="8" width="20" height="2" fill="#b27cba"/><rect y="12" width="20" height="2" fill="#b27cba"/><rect y="16" width="20" height="2" fill="#b27cba"/></g><rect x="0" y="27.64" width="27.64" height="27.64" fill="#7c5c85"/><polygon points="0,27.64 27.64,27.64 0,55.28" fill="#192029"/><rect x="27.64" y="27.64" width="27.64" height="27.64" fill="#5c4967"/><path d="M 27.64 55.28 A 27.64 27.64 0 0 1  55.28 27.64 L 55.28 55.28" fill="#c184c8"/><rect x="55.285714285714285" y="0" width="55.285714285714285" height="55.285714285714285" fill="#141f22"/><rect x="55.29" y="0" width="27.64" height="27.64" fill="#5b4966"/><polygon points="55.29,0 82.93,0 82.93,27.64" fill="#2b2344"/><rect x="82.93" y="0" width="27.64" height="27.64" fill="#24223a"/><path d="M 82.93 27.64 A 27.64 27.64 0 0 1  110.57000000000001 0 L 82.93 27.64 A 27.64 27.64 0 0 0 110.57000000000001 0" fill="#1a202b"/><rect x="55.29" y="27.64" width="27.64" height="27.64" fill="#4f425b"/><polygon points="55.29,27.64 82.93,27.64 55.29,55.28" fill="#805e8a"/><rect x="82.93" y="27.64" width="27.64" height="27.64" fill="#1d212f"/><g transform="translate(82.93,27.64) scale(1.3820000000000001) rotate(0)"><path d="M10 0L20 10L10 20L0 10L10 0Z" fill="#1d2130"/></g><rect x="110.57142857142857" y="0" width="55.285714285714285" height="55.285714285714285" fill="#141f22"/><rect x="110.57" y="0" width="27.64" height="27.64" fill="#1c202e"/><polygon points="110.57,0 138.20999999999998,27.64 110.57,27.64" fill="#232138"/><rect x="138.21" y="0" width="27.64" height="27.64" fill="#482870"/><g transform="translate(138.21,0) scale(1.3820000000000001) rotate(0)"><path d="M10 0L20 10L10 20L0 10L10 0Z" fill="#552a83"/></g><rect x="110.57" y="27.64" width="27.64" height="27.64" fill="#624d6d"/><g transform="translate(110.57,27.64) scale(1.3820000000000001) rotate(0)"><rect width="20" height="2" fill="#25223c"/><rect y="4" width="20" height="2" fill="#25223c"/><rect y="8" width="20" height="2" fill="#25223c"/><rect y="12" width="20" height="2" fill="#25223c"/><rect y="16" width="20" height="2" fill="#25223c"/></g><rect x="138.21" y="27.64" width="27.64" height="27.64" fill="#552a83"/><polygon points="138.21,27.64 165.85000000000002,55.28 138.21,55.28" fill="#2e2e3b"/><rect x="165.85714285714286" y="0" width="55.285714285714285" height="55.285714285714285" fill="#141f22"/><rect x="165.86" y="0" width="27.64" height="27.64" fill="#956b9d"/><g transform="translate(165.86,0) scale(1.3820000000000001) rotate(0)"><rect width="2" height="20" fill="#a775ae"/><rect x="4" width="2" height="20" fill="#a775ae"/><rect x="8" width="2" height="20" fill="#a775ae"/><rect x="12" width="2" height="20" fill="#a775ae"/><rect x="16" width="2" height="20" fill="#a775ae"/></g><rect x="193.5" y="0" width="27.64" height="27.64" fill="#9a6ea2"/><g transform="translate(193.5,0) scale(1.3820000000000001) rotate(0)"><rect width="20" height="2" fill="#85618e"/><rect y="4" width="20" height="2" fill="#85618e"/><rect y="8" width="20" height="2" fill="#85618e"/><rect y="12" width="20" height="2" fill="#85618e"/><rect y="16" width="20" height="2" fill="#85618e"/></g><rect x="165.86" y="27.64" width="27.64" height="27.64" fill="#a775af"/><path d="M 165.86 55.28 A 27.64 27.64 0 0 1  193.5 27.64 L 165.86 55.28 A 27.64 27.64 0 0 0 193.5 27.64" fill="#402664"/><rect x="193.5" y="27.64" width="27.64" height="27.64" fill="#242831"/><g transform="translate(193.5,27.64) scale(1.3820000000000001) rotate(0)"><rect width="20" height="2" fill="#19202a"/><rect y="4" width="20" height="2" fill="#19202a"/><rect y="8" width="20" height="2" fill="#19202a"/><rect y="12" width="20" height="2" fill="#19202a"/><rect y="16" width="20" height="2" fill="#19202a"/></g><rect x="221.14" y="0" width="55.29" height="55.29" fill="#402664"/><g transform="translate(221.14,0) scale(2.7645) rotate(0)"><rect width="2" height="20" fill="#a876b0"/><rect x="4" width="2" height="20" fill="#a876b0"/><rect x="8" width="2" height="20" fill="#a876b0"/><rect x="12" width="2" height="20" fill="#a876b0"/><rect x="16" width="2" height="20" fill="#a876b0"/></g><rect x="276.42857142857144" y="0" width="55.285714285714285" height="55.285714285714285" fill="#141f22"/><rect x="276.43" y="0" width="27.64" height="27.64" fill="#50297b"/><polygon points="276.43,0 304.07,0 304.07,27.64" fill="#31244d"/><rect x="304.07" y="0" width="27.64" height="27.64" fill="#a876b0"/><path d="M 304.07 27.64 A 27.64 27.64 0 0 1  331.71 0 L 331.71 27.64" fill="#a273ab"/><rect x="276.43" y="27.64" width="27.64" height="27.64" fill="#3f2662"/><path d="M 276.43 27.64 A 27.64 27.64 0 0 0 304.07 55.28 L 304.07 27.64" fill="#b980c0"/><rect x="304.07" y="27.64" width="27.64" height="27.64" fill="#232830"/><g transform="translate(304.07,27.64) scale(1.3820000000000001) rotate(0)"><rect width="20" height="10" fill="#2f2f3b"/></g><rect x="331.71" y="0" width="55.29" height="55.29" fill="#765880"/><g transform="translate(331.71,0) scale(2.7645) rotate(0)"><path d="M10 0L20 10L10 20L0 10L10 0Z" fill="#4f297b"/></g><rect x="387" y="0" width="55.285714285714285" height="55.285714285714285" fill="#141f22"/><rect x="387" y="0" width="27.64" height="27.64" fill="#a373ab"/><g transform="translate(387,0) scale(1.3820000000000001) rotate(0)"><rect width="20" height="10" fill="#4c2876"/></g><rect x="414.64" y="0" width="27.64" height="27.64" fill="#1e2130"/><g transform="translate(414.64,0) scale(1.3820000000000001) rotate(0)"><path d="M10 0L20 10L10 20L0 10L10 0Z" fill="#594764"/></g><rect x="387" y="27.64" width="27.64" height="27.64" fill="#50297b"/><path d="M 387 27.64 A 27.64 27.64 0 0 0 414.64 55.28 L 414.64 27.64" fill="#202134"/><rect x="414.64" y="27.64" width="27.64" height="27.64" fill="#c688cd"/><g transform="translate(414.64,27.64) scale(1.3820000000000001) rotate(0)"><rect width="2" height="20" fill="#8e6797"/><rect x="4" width="2" height="20" fill="#8e6797"/><rect x="8" width="2" height="20" fill="#8e6797"/><rect x="12" width="2" height="20" fill="#8e6797"/><rect x="16" width="2" height="20" fill="#8e6797"/></g><rect x="442.29" y="0" width="55.29" height="55.29" fill="#333140"/><polygon points="497.58000000000004,0 497.58000000000004,55.29 442.29,55.29" fill="#433b4f"/><rect x="497.57" y="0" width="55.29" height="55.29" fill="#24223a"/><path d="M 497.57 0 A 55.29 55.29 0 0 1  552.86 55.29 L 497.57 0 A 55.29 55.29 0 0 0 552.86 55.29" fill="#6a5174"/><rect x="552.86" y="0" width="55.29" height="55.29" fill="#956a9d"/><g transform="translate(552.86,0) scale(2.7645) rotate(0)"><rect width="20" height="2" fill="#4c2875"/><rect y="4" width="20" height="2" fill="#4c2875"/><rect y="8" width="20" height="2" fill="#4c2875"/><rect y="12" width="20" height="2" fill="#4c2875"/><rect y="16" width="20" height="2" fill="#4c2875"/></g><rect x="0" y="55.285714285714285" width="55.285714285714285" height="55.285714285714285" fill="#141f22"/><rect x="0" y="55.29" width="27.64" height="27.64" fill="#876290"/><path d="M 0 82.93 A 27.64 27.64 0 0 1  27.64 55.29 L 0 82.93 A 27.64 27.64 0 0 0 27.64 55.29" fill="#cf8dd6"/><rect x="27.64" y="55.29" width="27.64" height="27.64" fill="#21272e"/><g transform="translate(27.64,55.29) scale(1.3820000000000001) rotate(0)"><path d="M10 0L20 10L10 20L0 10L10 0Z" fill="#a272aa"/></g><rect x="0" y="82.93" width="27.64" height="27.64" fill="#282240"/><g transform="translate(0,82.93) scale(1.3820000000000001) rotate(0)"><rect width="20" height="2" fill="#c788cd"/><rect y="4" width="20" height="2" fill="#c788cd"/><rect y="8" width="20" height="2" fill="#c788cd"/><rect y="12" width="20" height="2" fill="#c788cd"/><rect y="16" width="20" height="2" fill="#c788cd"/></g><rect x="27.64" y="82.93" width="27.64" height="27.64" fill="#c788cd"/><g transform="translate(27.64,82.93) scale(1.3820000000000001) rotate(0)"><rect width="2" height="20" fill="#9c6fa5"/><rect x="4" width="2" height="20" fill="#9c6fa5"/><rect x="8" width="2" height="20" fill="#9c6fa5"/><rect x="12" width="2" height="20" fill="#9c6fa5"/><rect x="16" width="2" height="20" fill="#9c6fa5"/></g><rect x="55.29" y="55.29" width="55.29" height="55.29" fill="#151f23"/><g transform="translate(55.29,55.29) scale(2.7645) rotate(0)"><rect width="20" height="2" fill="#32244f"/><rect y="4" width="20" height="2" fill="#32244f"/><rect y="8" width="20" height="2" fill="#32244f"/><rect y="12" width="20" height="2" fill="#32244f"/><rect y="16" width="20" height="2" fill="#32244f"/></g><rect x="110.57" y="55.29" width="55.29" height="55.29" fill="#542a82"/><g transform="translate(110.57,55.29) scale(2.7645) rotate(0)"><rect width="20" height="2" fill="#362555"/><rect y="4" width="20" height="2" fill="#362555"/><rect y="8" width="20" height="2" fill="#362555"/><rect y="12" width="20" height="2" fill="#362555"/><rect y="16" width="20" height="2" fill="#362555"/></g><rect x="165.86" y="55.29" width="55.29" height="55.29" fill="#2e2349"/><polygon points="165.86,55.29 221.15,55.29 165.86,110.58" fill="#4c4058"/><rect x="221.14" y="55.29" width="55.29" height="55.29" fill="#946a9d"/><path d="M 221.14 110.58 A 55.29 55.29 0 0 1  276.43 55.29 L 221.14 110.58 A 55.29 55.29 0 0 0 276.43 55.29" fill="#664f70"/><rect x="276.43" y="55.29" width="55.29" height="55.29" fill="#362555"/><g transform="translate(276.43,55.29) scale(2.7645) rotate(0)"><path d="M10 0L20 10L10 20L0 10L10 0Z" fill="#cf8dd5"/></g><rect x="331.7142857142857" y="55.285714285714285" width="55.285714285714285" height="55.285714285714285" fill="#141f22"/><rect x="331.71" y="55.29" width="27.64" height="27.64" fill="#52445e"/><polygon points="359.34999999999997,55.29 359.34999999999997,82.93 331.71,82.93" fill="#3c3749"/><rect x="359.36" y="55.29" width="27.64" height="27.64" fill="#ca89d0"/><path d="M 359.36 55.29 A 27.64 27.64 0 0 1  387 82.93 L 359.36 55.29 A 27.64 27.64 0 0 0 387 82.93" fill="#4f2979"/><rect x="331.71" y="82.93" width="27.64" height="27.64" fill="#552a83"/><g transform="translate(331.71,82.93) scale(1.3820000000000001) rotate(0)"><rect width="2" height="20" fill="#d38fd9"/><rect x="4" width="2" height="20" fill="#d38fd9"/><rect x="8" width="2" height="20" fill="#d38fd9"/><rect x="12" width="2" height="20" fill="#d38fd9"/><rect x="16" width="2" height="20" fill="#d38fd9"/></g><rect x="359.36" y="82.93" width="27.64" height="27.64" fill="#75587f"/><polygon points="359.36,82.93 387,82.93 359.36,110.57000000000001" fill="#ae79b6"/><rect x="387" y="55.29" width="55.29" height="55.29" fill="#422767"/><polygon points="442.29,55.29 442.29,110.58 387,110.58" fill="#1c2329"/><rect x="442.29" y="55.29" width="55.29" height="55.29" fill="#3c265d"/><path d="M 442.29 55.29 A 55.29 55.29 0 0 1  497.58000000000004 110.58 L 442.29 55.29 A 55.29 55.29 0 0 0 497.58000000000004 110.58" fill="#45276b"/><rect x="497.57" y="55.29" width="55.29" height="55.29" fill="#c888ce"/><g transform="translate(497.57,55.29) scale(2.7645) rotate(0)"><rect width="2" height="20" fill="#6a5275"/><rect x="4" width="2" height="20" fill="#6a5275"/><rect x="8" width="2" height="20" fill="#6a5275"/><rect x="12" width="2" height="20" fill="#6a5275"/><rect x="16" width="2" height="20" fill="#6a5275"/></g><rect x="552.8571428571429" y="55.285714285714285" width="55.285714285714285" height="55.285714285714285" fill="#141f22"/><rect x="552.86" y="55.29" width="27.64" height="27.64" fill="#7d5c86"/><g transform="translate(552.86,55.29) scale(1.3820000000000001) rotate(0)"><rect width="20" height="2" fill="#25223b"/><rect y="4" width="20" height="2" fill="#25223b"/><rect y="8" width="20" height="2" fill="#25223b"/><rect y="12" width="20" height="2" fill="#25223b"/><rect y="16" width="20" height="2" fill="#25223b"/></g><rect x="580.5" y="55.29" width="27.64" height="27.64" fill="#73567d"/><g transform="translate(580.5,55.29) scale(1.3820000000000001) rotate(0)"><path d="M10 0L20 10L10 20L0 10L10 0Z" fill="#172125"/></g><rect x="552.86" y="82.93" width="27.64" height="27.64" fill="#47286e"/><g transform="translate(552.86,82.93) scale(1.3820000000000001) rotate(0)"><rect width="20" height="10" fill="#2f244a"/></g><rect x="580.5" y="82.93" width="27.64" height="27.64" fill="#3c3749"/><g transform="translate(580.5,82.93) scale(1.3820000000000001) rotate(0)"><rect width="20" height="2" fill="#7c5c85"/><rect y="4" width="20" height="2" fill="#7c5c85"/><rect y="8" width="20" height="2" fill="#7c5c85"/><rect y="12" width="20" height="2" fill="#7c5c85"/><rect y="16" width="20" height="2" fill="#7c5c85"/></g><rect x="0" y="110.57" width="55.29" height="55.29" fill="#393545"/><g transform="translate(0,110.57) scale(2.7645) rotate(0)"><rect width="20" height="2" fill="#1c202e"/><rect y="4" width="20" height="2" fill="#1c202e"/><rect y="8" width="20" height="2" fill="#1c202e"/><rect y="12" width="20" height="2" fill="#1c202e"/><rect y="16" width="20" height="2" fill="#1c202e"/></g><rect x="55.29" y="110.57" width="55.29" height="55.29" fill="#4a2872"/><g transform="translate(55.29,110.57) scale(2.7645) rotate(0)"><rect width="2" height="20" fill="#765880"/><rect x="4" width="2" height="20" fill="#765880"/><rect x="8" width="2" height="20" fill="#765880"/><rect x="12" width="2" height="20" fill="#765880"/><rect x="16" width="2" height="20" fill="#765880"/></g><rect x="110.57142857142857" y="110.57142857142857" width="55.285714285714285" height="55.285714285714285" fill="#141f22"/><rect x="110.57" y="110.57" width="27.64" height="27.64" fill="#26223d"/><path d="M 110.57 138.20999999999998 A 27.64 27.64 0 0 1  138.20999999999998 110.57 L 138.20999999999998 138.20999999999998" fill="#ba80c1"/><rect x="138.21" y="110.57" width="27.64" height="27.64" fill="#6d5377"/><g transform="translate(138.21,110.57) scale(1.3820000000000001) rotate(0)"><path d="M10 0L20 10L10 20L0 10L10 0Z" fill="#32244f"/></g><rect x="110.57" y="138.21" width="27.64" height="27.64" fill="#8b6594"/><polygon points="110.57,138.21 138.20999999999998,138.21 110.57,165.85000000000002" fill="#4e2978"/><rect x="138.21" y="138.21" width="27.64" height="27.64" fill="#292342"/><path d="M 138.21 165.85000000000002 A 27.64 27.64 0 0 1  165.85000000000002 138.21 L 138.21 165.85000000000002 A 27.64 27.64 0 0 0 165.85000000000002 138.21" fill="#44276a"/><rect x="165.86" y="110.57" width="55.29" height="55.29" fill="#46276c"/><polygon points="165.86,110.57 221.15,110.57 221.15,165.85999999999999" fill="#272a35"/><rect x="221.14" y="110.57" width="55.29" height="55.29" fill="#222137"/><path d="M 221.14 110.57 A 55.29 55.29 0 0 0 276.43 165.85999999999999 L 276.43 110.57" fill="#3c3749"/><rect x="276.42857142857144" y="110.57142857142857" width="55.285714285714285" height="55.285714285714285" fill="#141f22"/><rect x="276.43" y="110.57" width="27.64" height="27.64" fill="#554561"/><g transform="translate(276.43,110.57) scale(1.3820000000000001) rotate(0)"><rect width="20" height="10" fill="#332450"/></g><rect x="304.07" y="110.57" width="27.64" height="27.64" fill="#4a2872"/><path d="M 304.07 110.57 A 27.64 27.64 0 0 1 331.71 138.20999999999998 L 304.07 138.20999999999998" fill="#332450"/><rect x="276.43" y="138.21" width="27.64" height="27.64" fill="#542a81"/><g transform="translate(276.43,138.21) scale(1.3820000000000001) rotate(0)"><rect width="20" height="2" fill="#1c202e"/><rect y="4" width="20" height="2" fill="#1c202e"/><rect y="8" width="20" height="2" fill="#1c202e"/><rect y="12" width="20" height="2" fill="#1c202e"/><rect y="16" width="20" height="2" fill="#1c202e"/></g><rect x="304.07" y="138.21" width="27.64" height="27.64" fill="#282240"/><path d="M 304.07 165.85000000000002 A 27.64 27.64 0 0 0 331.71 138.21 L 304.07 138.21" fill="#1f262d"/><rect x="331.71" y="110.57" width="55.29" height="55.29" fill="#a272aa"/><g transform="translate(331.71,110.57) scale(2.7645) rotate(0)"><rect width="20" height="2" fill="#5a4865"/><rect y="4" width="20" height="2" fill="#5a4865"/><rect y="8" width="20" height="2" fill="#5a4865"/><rect y="12" width="20" height="2" fill="#5a4865"/><rect y="16" width="20" height="2" fill="#5a4865"/></g><rect x="387" y="110.57142857142857" width="55.285714285714285" height="55.285714285714285" fill="#141f22"/><rect x="387" y="110.57" width="27.64" height="27.64" fill="#886391"/><polygon points="387,110.57 414.64,110.57 414.64,138.20999999999998" fill="#1d202f"/><rect x="414.64" y="110.57" width="27.64" height="27.64" fill="#483d54"/><path d="M 414.64 110.57 A 27.64 27.64 0 0 1  442.28 138.20999999999998 L 414.64 110.57 A 27.64 27.64 0 0 0 442.28 138.20999999999998" fill="#492871"/><rect x="387" y="138.21" width="27.64" height="27.64" fill="#bf83c6"/><polygon points="387,138.21 414.64,138.21 387,165.85000000000002" fill="#2a2343"/><rect x="414.64" y="138.21" width="27.64" height="27.64" fill="#2b2344"/><polygon points="414.64,138.21 442.28,138.21 414.64,165.85000000000002" fill="#c184c8"/><rect x="442.29" y="110.57" width="55.29" height="55.29" fill="#483d53"/><g transform="translate(442.29,110.57) scale(2.7645) rotate(0)"><path d="M10 0L20 10L10 20L0 10L10 0Z" fill="#2d2e3a"/></g><rect x="497.57" y="110.57" width="55.29" height="55.29" fill="#be82c4"/><g transform="translate(497.57,110.57) scale(2.7645) rotate(0)"><rect width="20" height="10" fill="#805e8a"/></g><rect x="552.8571428571429" y="110.57142857142857" width="55.285714285714285" height="55.285714285714285" fill="#141f22"/><rect x="552.86" y="110.57" width="27.64" height="27.64" fill="#54455f"/><path d="M 552.86 110.57 A 27.64 27.64 0 0 1  580.5 138.20999999999998 L 552.86 110.57 A 27.64 27.64 0 0 0 580.5 138.20999999999998" fill="#30244c"/><rect x="580.5" y="110.57" width="27.64" height="27.64" fill="#a171a9"/><g transform="translate(580.5,110.57) scale(1.3820000000000001) rotate(0)"><path d="M10 0L20 10L10 20L0 10L10 0Z" fill="#9e70a6"/></g><rect x="552.86" y="138.21" width="27.64" height="27.64" fill="#3d2660"/><polygon points="552.86,138.21 580.5,138.21 580.5,165.85000000000002" fill="#5f4b6a"/><rect x="580.5" y="138.21" width="27.64" height="27.64" fill="#542a81"/><g transform="translate(580.5,138.21) scale(1.3820000000000001) rotate(0)"><rect width="20" height="10" fill="#222136"/></g><rect x="0" y="165.85714285714286" width="55.285714285714285" height="55.285714285714285" fill="#141f22"/><rect x="0" y="165.86" width="27.64" height="27.64" fill="#25223c"/><g transform="translate(0,165.86) scale(1.3820000000000001) rotate(0)"><path d="M10 0L20 10L10 20L0 10L10 0Z" fill="#542a81"/></g><rect x="27.64" y="165.86" width="27.64" height="27.64" fill="#a272aa"/><polygon points="27.64,165.86 55.28,193.5 27.64,193.5" fill="#9a6da2"/><rect x="0" y="193.5" width="27.64" height="27.64" fill="#9b6ea3"/><g transform="translate(0,193.5) scale(1.3820000000000001) rotate(0)"><rect width="20" height="10" fill="#4f297a"/></g><rect x="27.64" y="193.5" width="27.64" height="27.64" fill="#1a202a"/><polygon points="27.64,193.5 55.28,221.14 27.64,221.14" fill="#624d6c"/><rect x="55.285714285714285" y="165.85714285714286" width="55.285714285714285" height="55.285714285714285" fill="#141f22"/><rect x="55.29" y="165.86" width="27.64" height="27.64" fill="#413a4d"/><g transform="translate(55.29,165.86) scale(1.3820000000000001) rotate(0)"><rect width="20" height="2" fill="#6d5378"/><rect y="4" width="20" height="2" fill="#6d5378"/><rect y="8" width="20" height="2" fill="#6d5378"/><rect y="12" width="20" height="2" fill="#6d5378"/><rect y="16" width="20" height="2" fill="#6d5378"/></g><rect x="82.93" y="165.86" width="27.64" height="27.64" fill="#51297d"/><path d="M 82.93 193.5 A 27.64 27.64 0 0 0 110.57000000000001 165.86 L 82.93 165.86" fill="#c084c7"/><rect x="55.29" y="193.5" width="27.64" height="27.64" fill="#473d53"/><g transform="translate(55.29,193.5) scale(1.3820000000000001) rotate(0)"><path d="M10 0L20 10L10 20L0 10L10 0Z" fill="#a071a8"/></g><rect x="82.93" y="193.5" width="27.64" height="27.64" fill="#cb8ad1"/><path d="M 82.93 193.5 A 27.64 27.64 0 0 1  110.57000000000001 221.14 L 82.93 193.5 A 27.64 27.64 0 0 0 110.57000000000001 221.14" fill="#5e4b69"/><rect x="110.57142857142857" y="165.85714285714286" width="55.285714285714285" height="55.285714285714285" fill="#141f22"/><rect x="110.57" y="165.86" width="27.64" height="27.64" fill="#362555"/><path d="M 110.57 165.86 A 27.64 27.64 0 0 1  138.20999999999998 193.5 L 110.57 165.86 A 27.64 27.64 0 0 0 138.20999999999998 193.5" fill="#c889cf"/><rect x="138.21" y="165.86" width="27.64" height="27.64" fill="#594764"/><g transform="translate(138.21,165.86) scale(1.3820000000000001) rotate(0)"><path d="M10 0L20 10L10 20L0 10L10 0Z" fill="#292241"/></g><rect x="110.57" y="193.5" width="27.64" height="27.64" fill="#b07ab7"/><path d="M 110.57 221.14 A 27.64 27.64 0 0 1  138.20999999999998 193.5 L 138.20999999999998 221.14" fill="#19202a"/><rect x="138.21" y="193.5" width="27.64" height="27.64" fill="#bb81c2"/><g transform="translate(138.21,193.5) scale(1.3820000000000001) rotate(0)"><rect width="20" height="2" fill="#162024"/><rect y="4" width="20" height="2" fill="#162024"/><rect y="8" width="20" height="2" fill="#162024"/><rect y="12" width="20" height="2" fill="#162024"/><rect y="16" width="20" height="2" fill="#162024"/></g><rect x="165.86" y="165.86" width="55.29" height="55.29" fill="#876390"/><g transform="translate(165.86,165.86) scale(2.7645) rotate(0)"><rect width="20" height="2" fill="#85618e"/><rect y="4" width="20" height="2" fill="#85618e"/><rect y="8" width="20" height="2" fill="#85618e"/><rect y="12" width="20" height="2" fill="#85618e"/><rect y="16" width="20" height="2" fill="#85618e"/></g><rect x="221.14" y="165.86" width="55.29" height="55.29" fill="#32313f"/><g transform="translate(221.14,165.86) scale(2.7645) rotate(0)"><rect width="20" height="10" fill="#1b202c"/></g><rect x="276.42857142857144" y="165.85714285714286" width="55.285714285714285" height="55.285714285714285" fill="#141f22"/><rect x="276.43" y="165.86" width="27.64" height="27.64" fill="#1d252b"/><polygon points="304.07,165.86 304.07,193.5 276.43,193.5" fill="#402663"/><rect x="304.07" y="165.86" width="27.64" height="27.64" fill="#b07bb8"/><g transform="translate(304.07,165.86) scale(1.3820000000000001) rotate(0)"><rect width="2" height="20" fill="#5a4865"/><rect x="4" width="2" height="20" fill="#5a4865"/><rect x="8" width="2" height="20" fill="#5a4865"/><rect x="12" width="2" height="20" fill="#5a4865"/><rect x="16" width="2" height="20" fill="#5a4865"/></g><rect x="276.43" y="193.5" width="27.64" height="27.64" fill="#4c4058"/><g transform="translate(276.43,193.5) scale(1.3820000000000001) rotate(0)"><rect width="20" height="10" fill="#c989cf"/></g><rect x="304.07" y="193.5" width="27.64" height="27.64" fill="#482870"/><path d="M 304.07 221.14 A 27.64 27.64 0 0 0 331.71 193.5 L 304.07 193.5" fill="#212136"/><rect x="331.7142857142857" y="165.85714285714286" width="55.285714285714285" height="55.285714285714285" fill="#141f22"/><rect x="331.71" y="165.86" width="27.64" height="27.64" fill="#272a34"/><g transform="translate(331.71,165.86) scale(1.3820000000000001) rotate(0)"><rect width="2" height="20" fill="#1e2131"/><rect x="4" width="2" height="20" fill="#1e2131"/><rect x="8" width="2" height="20" fill="#1e2131"/><rect x="12" width="2" height="20" fill="#1e2131"/><rect x="16" width="2" height="20" fill="#1e2131"/></g><rect x="359.36" y="165.86" width="27.64" height="27.64" fill="#1f2133"/><path d="M 359.36 193.5 A 27.64 27.64 0 0 1  387 165.86 L 387 193.5" fill="#92699b"/><rect x="331.71" y="193.5" width="27.64" height="27.64" fill="#2f244a"/><g transform="translate(331.71,193.5) scale(1.3820000000000001) rotate(0)"><rect width="20" height="2" fill="#ca89d0"/><rect y="4" width="20" height="2" fill="#ca89d0"/><rect y="8" width="20" height="2" fill="#ca89d0"/><rect y="12" width="20" height="2" fill="#ca89d0"/><rect y="16" width="20" height="2" fill="#ca89d0"/></g><rect x="359.36" y="193.5" width="27.64" height="27.64" fill="#182226"/><g transform="translate(359.36,193.5) scale(1.3820000000000001) rotate(0)"><path d="M10 0L20 10L10 20L0 10L10 0Z" fill="#554560"/></g><rect x="387" y="165.85714285714286" width="55.285714285714285" height="55.285714285714285" fill="#141f22"/><rect x="387" y="165.86" width="27.64" height="27.64" fill="#342452"/><g transform="translate(387,165.86) scale(1.3820000000000001) rotate(0)"><rect width="2" height="20" fill="#3c265d"/><rect x="4" width="2" height="20" fill="#3c265d"/><rect x="8" width="2" height="20" fill="#3c265d"/><rect x="12" width="2" height="20" fill="#3c265d"/><rect x="16" width="2" height="20" fill="#3c265d"/></g><rect x="414.64" y="165.86" width="27.64" height="27.64" fill="#30244c"/><path d="M 414.64 193.5 A 27.64 27.64 0 0 1  442.28 165.86 L 414.64 193.5 A 27.64 27.64 0 0 0 442.28 165.86" fill="#552a82"/><rect x="387" y="193.5" width="27.64" height="27.64" fill="#1d212f"/><g transform="translate(387,193.5) scale(1.3820000000000001) rotate(0)"><rect width="20" height="10" fill="#51435c"/></g><rect x="414.64" y="193.5" width="27.64" height="27.64" fill="#85618e"/><g transform="translate(414.64,193.5) scale(1.3820000000000001) rotate(0)"><path d="M10 0L20 10L10 20L0 10L10 0Z" fill="#1f2132"/></g><rect x="442.29" y="165.86" width="55.29" height="55.29" fill="#2b2344"/><g transform="translate(442.29,165.86) scale(2.7645) rotate(0)"><rect width="20" height="2" fill="#1d242b"/><rect y="4" width="20" height="2" fill="#1d242b"/><rect y="8" width="20" height="2" fill="#1d242b"/><rect y="12" width="20" height="2" fill="#1d242b"/><rect y="16" width="20" height="2" fill="#1d242b"/></g><rect x="497.57" y="165.86" width="55.29" height="55.29" fill="#2d2d3a"/><g transform="translate(497.57,165.86) scale(2.7645) rotate(0)"><rect width="20" height="2" fill="#30244c"/><rect y="4" width="20" height="2" fill="#30244c"/><rect y="8" width="20" height="2" fill="#30244c"/><rect y="12" width="20" height="2" fill="#30244c"/><rect y="16" width="20" height="2" fill="#30244c"/></g><rect x="552.86" y="165.86" width="55.29" height="55.29" fill="#cd8bd3"/><g transform="translate(552.86,165.86) scale(2.7645) rotate(0)"><rect width="20" height="10" fill="#51435d"/></g><rect x="0" y="221.14285714285714" width="55.285714285714285" height="55.285714285714285" fill="#141f22"/><rect x="0" y="221.14" width="27.64" height="27.64" fill="#584763"/><g transform="translate(0,221.14) scale(1.3820000000000001) rotate(0)"><rect width="20" height="2" fill="#40394c"/><rect y="4" width="20" height="2" fill="#40394c"/><rect y="8" width="20" height="2" fill="#40394c"/><rect y="12" width="20" height="2" fill="#40394c"/><rect y="16" width="20" height="2" fill="#40394c"/></g><rect x="27.64" y="221.14" width="27.64" height="27.64" fill="#82608c"/><g transform="translate(27.64,221.14) scale(1.3820000000000001) rotate(0)"><rect width="20" height="10" fill="#192227"/></g><rect x="0" y="248.79" width="27.64" height="27.64" fill="#4c2976"/><g transform="translate(0,248.79) scale(1.3820000000000001) rotate(0)"><rect width="20" height="2" fill="#53445f"/><rect y="4" width="20" height="2" fill="#53445f"/><rect y="8" width="20" height="2" fill="#53445f"/><rect y="12" width="20" height="2" fill="#53445f"/><rect y="16" width="20" height="2" fill="#53445f"/></g><rect x="27.64" y="248.79" width="27.64" height="27.64" fill="#40394c"/><g transform="translate(27.64,248.79) scale(1.3820000000000001) rotate(0)"><rect width="2" height="20" fill="#332451"/><rect x="4" width="2" height="20" fill="#332451"/><rect x="8" width="2" height="20" fill="#332451"/><rect x="12" width="2" height="20" fill="#332451"/><rect x="16" width="2" height="20" fill="#332451"/></g><rect x="55.285714285714285" y="221.14285714285714" width="55.285714285714285" height="55.285714285714285" fill="#141f22"/><rect x="55.29" y="221.14" width="27.64" height="27.64" fill="#85618e"/><g transform="translate(55.29,221.14) scale(1.3820000000000001) rotate(0)"><path d="M10 0L20 10L10 20L0 10L10 0Z" fill="#3c265e"/></g><rect x="82.93" y="221.14" width="27.64" height="27.64" fill="#4c2876"/><g transform="translate(82.93,221.14) scale(1.3820000000000001) rotate(0)"><path d="M10 0L20 10L10 20L0 10L10 0Z" fill="#4a2872"/></g><rect x="55.29" y="248.79" width="27.64" height="27.64" fill="#2d2347"/><g transform="translate(55.29,248.79) scale(1.3820000000000001) rotate(0)"><rect width="2" height="20" fill="#594864"/><rect x="4" width="2" height="20" fill="#594864"/><rect x="8" width="2" height="20" fill="#594864"/><rect x="12" width="2" height="20" fill="#594864"/><rect x="16" width="2" height="20" fill="#594864"/></g><rect x="82.93" y="248.79" width="27.64" height="27.64" fill="#54445f"/><g transform="translate(82.93,248.79) scale(1.3820000000000001) rotate(0)"><rect width="20" height="2" fill="#3b265d"/><rect y="4" width="20" height="2" fill="#3b265d"/><rect y="8" width="20" height="2" fill="#3b265d"/><rect y="12" width="20" height="2" fill="#3b265d"/><rect y="16" width="20" height="2" fill="#3b265d"/></g><rect x="110.57" y="221.14" width="55.29" height="55.29" fill="#2f244a"/><polygon points="165.85999999999999,221.14 165.85999999999999,276.43 110.57,276.43" fill="#af7ab6"/><rect x="165.85714285714286" y="221.14285714285714" width="55.285714285714285" height="55.285714285714285" fill="#141f22"/><rect x="165.86" y="221.14" width="27.64" height="27.64" fill="#4a2872"/><g transform="translate(165.86,221.14) scale(1.3820000000000001) rotate(0)"><rect width="20" height="2" fill="#c788ce"/><rect y="4" width="20" height="2" fill="#c788ce"/><rect y="8" width="20" height="2" fill="#c788ce"/><rect y="12" width="20" height="2" fill="#c788ce"/><rect y="16" width="20" height="2" fill="#c788ce"/></g><rect x="193.5" y="221.14" width="27.64" height="27.64" fill="#2c2346"/><g transform="translate(193.5,221.14) scale(1.3820000000000001) rotate(0)"><path d="M10 0L20 10L10 20L0 10L10 0Z" fill="#3c265e"/></g><rect x="165.86" y="248.79" width="27.64" height="27.64" fill="#695174"/><polygon points="165.86,248.79 193.5,248.79 193.5,276.43" fill="#352554"/><rect x="193.5" y="248.79" width="27.64" height="27.64" fill="#282b35"/><g transform="translate(193.5,248.79) scale(1.3820000000000001) rotate(0)"><rect width="20" height="2" fill="#2a2342"/><rect y="4" width="20" height="2" fill="#2a2342"/><rect y="8" width="20" height="2" fill="#2a2342"/><rect y="12" width="20" height="2" fill="#2a2342"/><rect y="16" width="20" height="2" fill="#2a2342"/></g><rect x="221.14" y="221.14" width="55.29" height="55.29" fill="#92699b"/><g transform="translate(221.14,221.14) scale(2.7645) rotate(0)"><rect width="20" height="2" fill="#1b202d"/><rect y="4" width="20" height="2" fill="#1b202d"/><rect y="8" width="20" height="2" fill="#1b202d"/><rect y="12" width="20" height="2" fill="#1b202d"/><rect y="16" width="20" height="2" fill="#1b202d"/></g><rect x="276.43" y="221.14" width="55.29" height="55.29" fill="#422766"/><g transform="translate(276.43,221.14) scale(2.7645) rotate(0)"><rect width="20" height="10" fill="#a775af"/></g><rect x="331.71" y="221.14" width="55.29" height="55.29" fill="#4f297a"/><path d="M 331.71 221.14 A 55.29 55.29 0 0 1 387 276.43 L 331.71 276.43" fill="#2b2344"/><rect x="387" y="221.14" width="55.29" height="55.29" fill="#222138"/><g transform="translate(387,221.14) scale(2.7645) rotate(0)"><rect width="20" height="10" fill="#4d2977"/></g><rect x="442.29" y="221.14" width="55.29" height="55.29" fill="#432769"/><g transform="translate(442.29,221.14) scale(2.7645) rotate(0)"><rect width="20" height="2" fill="#442769"/><rect y="4" width="20" height="2" fill="#442769"/><rect y="8" width="20" height="2" fill="#442769"/><rect y="12" width="20" height="2" fill="#442769"/><rect y="16" width="20" height="2" fill="#442769"/></g><rect x="497.57" y="221.14" width="55.29" height="55.29" fill="#542a81"/><path d="M 497.57 221.14 A 55.29 55.29 0 0 1 552.86 276.43 L 497.57 276.43" fill="#1c202e"/><rect x="552.86" y="221.14" width="55.29" height="55.29" fill="#21262e"/><g transform="translate(552.86,221.14) scale(2.7645) rotate(0)"><rect width="2" height="20" fill="#45276b"/><rect x="4" width="2" height="20" fill="#45276b"/><rect x="8" width="2" height="20" fill="#45276b"/><rect x="12" width="2" height="20" fill="#45276b"/><rect x="16" width="2" height="20" fill="#45276b"/></g><rect x="0" y="276.42857142857144" width="55.285714285714285" height="55.285714285714285" fill="#141f22"/><rect x="0" y="276.43" width="27.64" height="27.64" fill="#50297c"/><g transform="translate(0,276.43) scale(1.3820000000000001) rotate(0)"><path d="M10 0L20 10L10 20L0 10L10 0Z" fill="#1c202e"/></g><rect x="27.64" y="276.43" width="27.64" height="27.64" fill="#cc8bd3"/><g transform="translate(27.64,276.43) scale(1.3820000000000001) rotate(0)"><rect width="20" height="10" fill="#2c2346"/></g><rect x="0" y="304.07" width="27.64" height="27.64" fill="#1e2130"/><polygon points="0,304.07 27.64,331.71 0,331.71" fill="#343241"/><rect x="27.64" y="304.07" width="27.64" height="27.64" fill="#86628f"/><path d="M 27.64 331.71 A 27.64 27.64 0 0 1  55.28 304.07 L 55.28 331.71" fill="#c084c7"/><rect x="55.285714285714285" y="276.42857142857144" width="55.285714285714285" height="55.285714285714285" fill="#141f22"/><rect x="55.29" y="276.43" width="27.64" height="27.64" fill="#50297c"/><g transform="translate(55.29,276.43) scale(1.3820000000000001) rotate(0)"><rect width="2" height="20" fill="#532a80"/><rect x="4" width="2" height="20" fill="#532a80"/><rect x="8" width="2" height="20" fill="#532a80"/><rect x="12" width="2" height="20" fill="#532a80"/><rect x="16" width="2" height="20" fill="#532a80"/></g><rect x="82.93" y="276.43" width="27.64" height="27.64" fill="#32244e"/><path d="M 82.93 304.07 A 27.64 27.64 0 0 1  110.57000000000001 276.43 L 110.57000000000001 304.07" fill="#1a2328"/><rect x="55.29" y="304.07" width="27.64" height="27.64" fill="#2a2c37"/><path d="M 55.29 331.71 A 27.64 27.64 0 0 1  82.93 304.07 L 55.29 331.71 A 27.64 27.64 0 0 0 82.93 304.07" fill="#584763"/><rect x="82.93" y="304.07" width="27.64" height="27.64" fill="#966b9e"/><g transform="translate(82.93,304.07) scale(1.3820000000000001) rotate(0)"><path d="M10 0L20 10L10 20L0 10L10 0Z" fill="#4a2872"/></g><rect x="110.57142857142857" y="276.42857142857144" width="55.285714285714285" height="55.285714285714285" fill="#141f22"/><rect x="110.57" y="276.43" width="27.64" height="27.64" fill="#d28ed8"/><g transform="translate(110.57,276.43) scale(1.3820000000000001) rotate(0)"><rect width="20" height="10" fill="#4d2977"/></g><rect x="138.21" y="276.43" width="27.64" height="27.64" fill="#45276b"/><g transform="translate(138.21,276.43) scale(1.3820000000000001) rotate(0)"><rect width="20" height="10" fill="#362554"/></g><rect x="110.57" y="304.07" width="27.64" height="27.64" fill="#48286f"/><g transform="translate(110.57,304.07) scale(1.3820000000000001) rotate(0)"><path d="M10 0L20 10L10 20L0 10L10 0Z" fill="#302f3d"/></g><rect x="138.21" y="304.07" width="27.64" height="27.64" fill="#6d5377"/><g transform="translate(138.21,304.07) scale(1.3820000000000001) rotate(0)"><rect width="20" height="2" fill="#53445e"/><rect y="4" width="20" height="2" fill="#53445e"/><rect y="8" width="20" height="2" fill="#53445e"/><rect y="12" width="20" height="2" fill="#53445e"/><rect y="16" width="20" height="2" fill="#53445e"/></g><rect x="165.86" y="276.43" width="55.29" height="55.29" fill="#30303d"/><g transform="translate(165.86,276.43) scale(2.7645) rotate(0)"><rect width="20" height="10" fill="#151f24"/></g><rect x="221.14285714285714" y="276.42857142857144" width="55.285714285714285" height="55.285714285714285" fill="#141f22"/><rect x="221.14" y="276.43" width="27.64" height="27.64" fill="#b17bb8"/><path d="M 221.14 304.07 A 27.64 27.64 0 0 1  248.77999999999997 276.43 L 248.77999999999997 304.07" fill="#4b2874"/><rect x="248.79" y="276.43" width="27.64" height="27.64" fill="#32244e"/><polygon points="248.79,276.43 276.43,276.43 276.43,304.07" fill="#26223c"/><rect x="221.14" y="304.07" width="27.64" height="27.64" fill="#a071a8"/><path d="M 221.14 304.07 A 27.64 27.64 0 0 1 248.77999999999997 331.71 L 221.14 331.71" fill="#785a82"/><rect x="248.79" y="304.07" width="27.64" height="27.64" fill="#b57dbc"/><g transform="translate(248.79,304.07) scale(1.3820000000000001) rotate(0)"><rect width="20" height="2" fill="#48286f"/><rect y="4" width="20" height="2" fill="#48286f"/><rect y="8" width="20" height="2" fill="#48286f"/><rect y="12" width="20" height="2" fill="#48286f"/><rect y="16" width="20" height="2" fill="#48286f"/></g><rect x="276.43" y="276.43" width="55.29" height="55.29" fill="#ba80c1"/><g transform="translate(276.43,276.43) scale(2.7645) rotate(0)"><rect width="2" height="20" fill="#232138"/><rect x="4" width="2" height="20" fill="#232138"/><rect x="8" width="2" height="20" fill="#232138"/><rect x="12" width="2" height="20" fill="#232138"/><rect x="16" width="2" height="20" fill="#232138"/></g><rect x="331.7142857142857" y="276.42857142857144" width="55.285714285714285" height="55.285714285714285" fill="#141f22"/><rect x="331.71" y="276.43" width="27.64" height="27.64" fill="#30244b"/><g transform="translate(331.71,276.43) scale(1.3820000000000001) rotate(0)"><rect width="20" height="10" fill="#815f8b"/></g><rect x="359.36" y="276.43" width="27.64" height="27.64" fill="#a473ac"/><polygon points="359.36,276.43 387,276.43 359.36,304.07" fill="#161f25"/><rect x="331.71" y="304.07" width="27.64" height="27.64" fill="#342452"/><g transform="translate(331.71,304.07) scale(1.3820000000000001) rotate(0)"><rect width="20" height="2" fill="#1a2328"/><rect y="4" width="20" height="2" fill="#1a2328"/><rect y="8" width="20" height="2" fill="#1a2328"/><rect y="12" width="20" height="2" fill="#1a2328"/><rect y="16" width="20" height="2" fill="#1a2328"/></g><rect x="359.36" y="304.07" width="27.64" height="27.64" fill="#1a2328"/><path d="M 359.36 304.07 A 27.64 27.64 0 0 1  387 331.71 L 359.36 304.07 A 27.64 27.64 0 0 0 387 331.71" fill="#4e2979"/><rect x="387" y="276.43" width="55.29" height="55.29" fill="#6c5377"/><g transform="translate(387,276.43) scale(2.7645) rotate(0)"><rect width="20" height="2" fill="#45276b"/><rect y="4" width="20" height="2" fill="#45276b"/><rect y="8" width="20" height="2" fill="#45276b"/><rect y="12" width="20" height="2" fill="#45276b"/><rect y="16" width="20" height="2" fill="#45276b"/></g><rect x="442.29" y="276.43" width="55.29" height="55.29" fill="#202134"/><path d="M 442.29 276.43 A 55.29 55.29 0 0 1 497.58000000000004 331.72 L 442.29 331.72" fill="#332451"/><rect x="497.57" y="276.43" width="55.29" height="55.29" fill="#32313f"/><g transform="translate(497.57,276.43) scale(2.7645) rotate(0)"><rect width="20" height="2" fill="#482870"/><rect y="4" width="20" height="2" fill="#482870"/><rect y="8" width="20" height="2" fill="#482870"/><rect y="12" width="20" height="2" fill="#482870"/><rect y="16" width="20" height="2" fill="#482870"/></g><rect x="552.8571428571429" y="276.42857142857144" width="55.285714285714285" height="55.285714285714285" fill="#141f22"/><rect x="552.86" y="276.43" width="27.64" height="27.64" fill="#412766"/><g transform="translate(552.86,276.43) scale(1.3820000000000001) rotate(0)"><rect width="20" height="2" fill="#c385c9"/><rect y="4" width="20" height="2" fill="#c385c9"/><rect y="8" width="20" height="2" fill="#c385c9"/><rect y="12" width="20" height="2" fill="#c385c9"/><rect y="16" width="20" height="2" fill="#c385c9"/></g><rect x="580.5" y="276.43" width="27.64" height="27.64" fill="#492870"/><polygon points="608.14,276.43 608.14,304.07 580.5,304.07" fill="#876290"/><rect x="552.86" y="304.07" width="27.64" height="27.64" fill="#6b5276"/><g transform="translate(552.86,304.07) scale(1.3820000000000001) rotate(0)"><rect width="2" height="20" fill="#272a35"/><rect x="4" width="2" height="20" fill="#272a35"/><rect x="8" width="2" height="20" fill="#272a35"/><rect x="12" width="2" height="20" fill="#272a35"/><rect x="16" width="2" height="20" fill="#272a35"/></g><rect x="580.5" y="304.07" width="27.64" height="27.64" fill="#2b2344"/><g transform="translate(580.5,304.07) scale(1.3820000000000001) rotate(0)"><path d="M10 0L20 10L10 20L0 10L10 0Z" fill="#a373ab"/></g><rect x="0" y="331.7142857142857" width="55.285714285714285" height="55.285714285714285" fill="#141f22"/><rect x="0" y="331.71" width="27.64" height="27.64" fill="#27223e"/><g transform="translate(0,331.71) scale(1.3820000000000001) rotate(0)"><rect width="20" height="10" fill="#2a2343"/></g><rect x="27.64" y="331.71" width="27.64" height="27.64" fill="#161f25"/><path d="M 27.64 331.71 A 27.64 27.64 0 0 1 55.28 359.34999999999997 L 27.64 359.34999999999997" fill="#946a9d"/><rect x="0" y="359.36" width="27.64" height="27.64" fill="#432768"/><g transform="translate(0,359.36) scale(1.3820000000000001) rotate(0)"><path d="M10 0L20 10L10 20L0 10L10 0Z" fill="#482870"/></g><rect x="27.64" y="359.36" width="27.64" height="27.64" fill="#373444"/><g transform="translate(27.64,359.36) scale(1.3820000000000001) rotate(0)"><rect width="20" height="2" fill="#24223a"/><rect y="4" width="20" height="2" fill="#24223a"/><rect y="8" width="20" height="2" fill="#24223a"/><rect y="12" width="20" height="2" fill="#24223a"/><rect y="16" width="20" height="2" fill="#24223a"/></g><rect x="55.285714285714285" y="331.7142857142857" width="55.285714285714285" height="55.285714285714285" fill="#141f22"/><rect x="55.29" y="331.71" width="27.64" height="27.64" fill="#4d2977"/><path d="M 55.29 359.34999999999997 A 27.64 27.64 0 0 1  82.93 331.71 L 82.93 359.34999999999997" fill="#2d2348"/><rect x="82.93" y="331.71" width="27.64" height="27.64" fill="#2d2e3a"/><g transform="translate(82.93,331.71) scale(1.3820000000000001) rotate(0)"><path d="M10 0L20 10L10 20L0 10L10 0Z" fill="#482870"/></g><rect x="55.29" y="359.36" width="27.64" height="27.64" fill="#cb8ad1"/><g transform="translate(55.29,359.36) scale(1.3820000000000001) rotate(0)"><path d="M10 0L20 10L10 20L0 10L10 0Z" fill="#161f25"/></g><rect x="82.93" y="359.36" width="27.64" height="27.64" fill="#af7ab6"/><g transform="translate(82.93,359.36) scale(1.3820000000000001) rotate(0)"><path d="M10 0L20 10L10 20L0 10L10 0Z" fill="#383445"/></g><rect x="110.57" y="331.71" width="55.29" height="55.29" fill="#482870"/><g transform="translate(110.57,331.71) scale(2.7645) rotate(0)"><rect width="20" height="10" fill="#1a2328"/></g><rect x="165.85714285714286" y="331.7142857142857" width="55.285714285714285" height="55.285714285714285" fill="#141f22"/><rect x="165.86" y="331.71" width="27.64" height="27.64" fill="#292241"/><g transform="translate(165.86,331.71) scale(1.3820000000000001) rotate(0)"><rect width="20" height="2" fill="#432768"/><rect y="4" width="20" height="2" fill="#432768"/><rect y="8" width="20" height="2" fill="#432768"/><rect y="12" width="20" height="2" fill="#432768"/><rect y="16" width="20" height="2" fill="#432768"/></g><rect x="193.5" y="331.71" width="27.64" height="27.64" fill="#4b2875"/><g transform="translate(193.5,331.71) scale(1.3820000000000001) rotate(0)"><rect width="20" height="2" fill="#52297f"/><rect y="4" width="20" height="2" fill="#52297f"/><rect y="8" width="20" height="2" fill="#52297f"/><rect y="12" width="20" height="2" fill="#52297f"/><rect y="16" width="20" height="2" fill="#52297f"/></g><rect x="165.86" y="359.36" width="27.64" height="27.64" fill="#a675ae"/><g transform="translate(165.86,359.36) scale(1.3820000000000001) rotate(0)"><rect width="2" height="20" fill="#be83c5"/><rect x="4" width="2" height="20" fill="#be83c5"/><rect x="8" width="2" height="20" fill="#be83c5"/><rect x="12" width="2" height="20" fill="#be83c5"/><rect x="16" width="2" height="20" fill="#be83c5"/></g><rect x="193.5" y="359.36" width="27.64" height="27.64" fill="#1e252c"/><polygon points="193.5,359.36 221.14,359.36 193.5,387" fill="#45276b"/><rect x="221.14" y="331.71" width="55.29" height="55.29" fill="#493e55"/><path d="M 221.14 331.71 A 55.29 55.29 0 0 0 276.43 387 L 276.43 331.71" fill="#50297c"/><rect x="276.43" y="331.71" width="55.29" height="55.29" fill="#1e2130"/><g transform="translate(276.43,331.71) scale(2.7645) rotate(0)"><rect width="20" height="2" fill="#3e2660"/><rect y="4" width="20" height="2" fill="#3e2660"/><rect y="8" width="20" height="2" fill="#3e2660"/><rect y="12" width="20" height="2" fill="#3e2660"/><rect y="16" width="20" height="2" fill="#3e2660"/></g><rect x="331.7142857142857" y="331.7142857142857" width="55.285714285714285" height="55.285714285714285" fill="#141f22"/><rect x="331.71" y="331.71" width="27.64" height="27.64" fill="#292342"/><g transform="translate(331.71,331.71) scale(1.3820000000000001) rotate(0)"><rect width="20" height="10" fill="#7d5d87"/></g><rect x="359.36" y="331.71" width="27.64" height="27.64" fill="#352554"/><g transform="translate(359.36,331.71) scale(1.3820000000000001) rotate(0)"><rect width="20" height="10" fill="#72567c"/></g><rect x="331.71" y="359.36" width="27.64" height="27.64" fill="#2d2347"/><g transform="translate(331.71,359.36) scale(1.3820000000000001) rotate(0)"><rect width="2" height="20" fill="#c184c8"/><rect x="4" width="2" height="20" fill="#c184c8"/><rect x="8" width="2" height="20" fill="#c184c8"/><rect x="12" width="2" height="20" fill="#c184c8"/><rect x="16" width="2" height="20" fill="#c184c8"/></g><rect x="359.36" y="359.36" width="27.64" height="27.64" fill="#9c6fa4"/><g transform="translate(359.36,359.36) scale(1.3820000000000001) rotate(0)"><rect width="2" height="20" fill="#3e2660"/><rect x="4" width="2" height="20" fill="#3e2660"/><rect x="8" width="2" height="20" fill="#3e2660"/><rect x="12" width="2" height="20" fill="#3e2660"/><rect x="16" width="2" height="20" fill="#3e2660"/></g><rect x="387" y="331.71" width="55.29" height="55.29" fill="#46276d"/><g transform="translate(387,331.71) scale(2.7645) rotate(0)"><path d="M10 0L20 10L10 20L0 10L10 0Z" fill="#3f2662"/></g><rect x="442.29" y="331.71" width="55.29" height="55.29" fill="#31244d"/><g transform="translate(442.29,331.71) scale(2.7645) rotate(0)"><rect width="2" height="20" fill="#c185c8"/><rect x="4" width="2" height="20" fill="#c185c8"/><rect x="8" width="2" height="20" fill="#c185c8"/><rect x="12" width="2" height="20" fill="#c185c8"/><rect x="16" width="2" height="20" fill="#c185c8"/></g><rect x="497.57" y="331.71" width="55.29" height="55.29" fill="#27223e"/><g transform="translate(497.57,331.71) scale(2.7645) rotate(0)"><rect width="20" height="2" fill="#542a81"/><rect y="4" width="20" height="2" fill="#542a81"/><rect y="8" width="20" height="2" fill="#542a81"/><rect y="12" width="20" height="2" fill="#542a81"/><rect y="16" width="20" height="2" fill="#542a81"/></g><rect x="552.86" y="331.71" width="55.29" height="55.29" fill="#542a81"/><g transform="translate(552.86,331.71) scale(2.7645) rotate(0)"><rect width="20" height="10" fill="#a674ae"/></g></g></svg>