<?xml version="1.0" standalone="no"?><svg xmlns:xlink="http://www.w3.org/1999/xlink" xmlns="http://www.w3.org/2000/svg" viewBox="0 0 1920 1221.8219130103053" preserveAspectRatio="xMaxYMax slice"><g transform="scale(3.1571625659181013)"><rect x="0" y="0" width="608.1428571428571" height="387" fill="#2e2e2e"/><rect x="0" y="0" width="55.285714285714285" height="55.285714285714285" fill="#2e2e2e"/><rect x="0" y="0" width="27.64" height="27.64" fill="#4b2652"/><polygon points="0,0 27.64,27.64 0,27.64" fill="#394754"/><rect x="27.64" y="0" width="27.64" height="27.64" fill="#37424d"/><polygon points="27.64,0 55.28,0 27.64,27.64" fill="#4e2556"/><rect x="0" y="27.64" width="27.64" height="27.64" fill="#1d6db8"/><polygon points="27.64,27.64 27.64,55.28 0,55.28" fill="#435e78"/><rect x="27.64" y="27.64" width="27.64" height="27.64" fill="#1f67ac"/><polygon points="27.64,27.64 55.28,27.64 55.28,55.28" fill="#27496a"/><rect x="55.285714285714285" y="0" width="55.285714285714285" height="55.285714285714285" fill="#2e2e2e"/><rect x="55.29" y="0" width="27.64" height="27.64" fill="#32373c"/><polygon points="55.29,0 82.93,0 55.29,27.64" fill="#28445e"/><rect x="82.93" y="0" width="27.64" height="27.64" fill="#5a2265"/><polygon points="82.93,0 110.57000000000001,0 110.57000000000001,27.64" fill="#352c37"/><rect x="55.29" y="27.64" width="27.64" height="27.64" fill="#3b2a3f"/><polygon points="82.93,27.64 82.93,55.28 55.29,55.28" fill="#342c36"/><rect x="82.93" y="27.64" width="27.64" height="27.64" fill="#31363a"/><polygon points="82.93,27.64 110.57000000000001,27.64 110.57000000000001,55.28" fill="#28445f"/><rect x="110.57142857142857" y="0" width="55.285714285714285" height="55.285714285714285" fill="#2e2e2e"/><rect x="110.57" y="0" width="27.64" height="27.64" fill="#512559"/><polygon points="110.57,0 138.20999999999998,27.64 110.57,27.64" fill="#425c74"/><rect x="138.21" y="0" width="27.64" height="27.64" fill="#2c363f"/><polygon points="138.21,0 165.85000000000002,0 138.21,27.64" fill="#5384b3"/><rect x="110.57" y="27.64" width="27.64" height="27.64" fill="#54245d"/><polygon points="110.57,27.64 138.20999999999998,27.64 110.57,55.28" fill="#2063a3"/><rect x="138.21" y="27.64" width="27.64" height="27.64" fill="#3d5164"/><polygon points="138.21,27.64 165.85000000000002,27.64 138.21,55.28" fill="#415a71"/><rect x="165.86" y="0" width="55.29" height="55.29" fill="#394856"/><polygon points="221.15,0 221.15,55.29 165.86,55.29" fill="#37424d"/><rect x="221.14285714285714" y="0" width="55.285714285714285" height="55.285714285714285" fill="#2e2e2e"/><rect x="221.14" y="0" width="27.64" height="27.64" fill="#681e76"/><polygon points="248.77999999999997,0 248.77999999999997,27.64 221.14,27.64" fill="#20619d"/><rect x="248.79" y="0" width="27.64" height="27.64" fill="#25507a"/><polygon points="248.79,0 276.43,27.64 248.79,27.64" fill="#3d2a40"/><rect x="221.14" y="27.64" width="27.64" height="27.64" fill="#5c2167"/><polygon points="221.14,27.64 248.77999999999997,27.64 221.14,55.28" fill="#2a3d4f"/><rect x="248.79" y="27.64" width="27.64" height="27.64" fill="#215d95"/><polygon points="248.79,27.64 276.43,55.28 248.79,55.28" fill="#54245e"/><rect x="276.42857142857144" y="0" width="55.285714285714285" height="55.285714285714285" fill="#2e2e2e"/><rect x="276.43" y="0" width="27.64" height="27.64" fill="#2b3b4a"/><polygon points="276.43,0 304.07,27.64 276.43,27.64" fill="#3d5164"/><rect x="304.07" y="0" width="27.64" height="27.64" fill="#6e1c7e"/><polygon points="304.07,0 331.71,0 304.07,27.64" fill="#394755"/><rect x="276.43" y="27.64" width="27.64" height="27.64" fill="#353e46"/><polygon points="304.07,27.64 304.07,55.28 276.43,55.28" fill="#47274d"/><rect x="304.07" y="27.64" width="27.64" height="27.64" fill="#23588b"/><polygon points="304.07,27.64 331.71,27.64 331.71,55.28" fill="#33393f"/><rect x="331.7142857142857" y="0" width="55.285714285714285" height="55.285714285714285" fill="#2e2e2e"/><rect x="331.71" y="0" width="27.64" height="27.64" fill="#187fdf"/><polygon points="331.71,0 359.34999999999997,0 331.71,27.64" fill="#47274d"/><rect x="359.36" y="0" width="27.64" height="27.64" fill="#466684"/><polygon points="359.36,0 387,0 387,27.64" fill="#21609b"/><rect x="331.71" y="27.64" width="27.64" height="27.64" fill="#507ea8"/><polygon points="331.71,27.64 359.34999999999997,27.64 331.71,55.28" fill="#476988"/><rect x="359.36" y="27.64" width="27.64" height="27.64" fill="#1880e1"/><polygon points="359.36,27.64 387,27.64 359.36,55.28" fill="#4a6e91"/><rect x="387" y="0" width="55.29" height="55.29" fill="#294055"/><polygon points="442.29,0 442.29,55.29 387,55.29" fill="#507da8"/><rect x="442.2857142857143" y="0" width="55.285714285714285" height="55.285714285714285" fill="#2e2e2e"/><rect x="442.29" y="0" width="27.64" height="27.64" fill="#46284b"/><polygon points="469.93,0 469.93,27.64 442.29,27.64" fill="#711c82"/><rect x="469.93" y="0" width="27.64" height="27.64" fill="#5180ab"/><polygon points="469.93,0 497.57,27.64 469.93,27.64" fill="#6e1c7e"/><rect x="442.29" y="27.64" width="27.64" height="27.64" fill="#4a6f92"/><polygon points="442.29,27.64 469.93,55.28 442.29,55.28" fill="#741b85"/><rect x="469.93" y="27.64" width="27.64" height="27.64" fill="#45284a"/><polygon points="497.57,27.64 497.57,55.28 469.93,55.28" fill="#1c70c0"/><rect x="497.57142857142856" y="0" width="55.285714285714285" height="55.285714285714285" fill="#2e2e2e"/><rect x="497.57" y="0" width="27.64" height="27.64" fill="#284561"/><polygon points="497.57,0 525.21,0 497.57,27.64" fill="#2f2e30"/><rect x="525.21" y="0" width="27.64" height="27.64" fill="#264c6f"/><polygon points="525.21,0 552.85,0 525.21,27.64" fill="#466582"/><rect x="497.57" y="27.64" width="27.64" height="27.64" fill="#254f77"/><polygon points="525.21,27.64 525.21,55.28 497.57,55.28" fill="#2f3032"/><rect x="525.21" y="27.64" width="27.64" height="27.64" fill="#3e5468"/><polygon points="525.21,27.64 552.85,27.64 525.21,55.28" fill="#721b83"/><rect x="552.86" y="0" width="55.29" height="55.29" fill="#352c36"/><polygon points="552.86,0 608.15,0 552.86,55.29" fill="#721b82"/><rect x="0" y="55.285714285714285" width="55.285714285714285" height="55.285714285714285" fill="#2e2e2e"/><rect x="0" y="55.29" width="27.64" height="27.64" fill="#1f66a9"/><polygon points="0,55.29 27.64,55.29 0,82.93" fill="#294056"/><rect x="27.64" y="55.29" width="27.64" height="27.64" fill="#20619e"/><polygon points="27.64,55.29 55.28,55.29 27.64,82.93" fill="#245380"/><rect x="0" y="82.93" width="27.64" height="27.64" fill="#47274e"/><polygon points="0,82.93 27.64,110.57000000000001 0,110.57000000000001" fill="#4b2652"/><rect x="27.64" y="82.93" width="27.64" height="27.64" fill="#492750"/><polygon points="27.64,82.93 55.28,110.57000000000001 27.64,110.57000000000001" fill="#45284b"/><rect x="55.29" y="55.29" width="55.29" height="55.29" fill="#3c4f61"/><polygon points="110.58,55.29 110.58,110.58 55.29,110.58" fill="#294157"/><rect x="110.57" y="55.29" width="55.29" height="55.29" fill="#2d3236"/><polygon points="110.57,55.29 165.85999999999999,110.58 110.57,110.58" fill="#353e47"/><rect x="165.86" y="55.29" width="55.29" height="55.29" fill="#4a2651"/><polygon points="221.15,55.29 221.15,110.58 165.86,110.58" fill="#1a79d2"/><rect x="221.14" y="55.29" width="55.29" height="55.29" fill="#701c81"/><polygon points="221.14,55.29 276.43,55.29 276.43,110.58" fill="#343c43"/><rect x="276.43" y="55.29" width="55.29" height="55.29" fill="#245482"/><polygon points="331.72,55.29 331.72,110.58 276.43,110.58" fill="#1e68ae"/><rect x="331.71" y="55.29" width="55.29" height="55.29" fill="#52245b"/><polygon points="331.71,55.29 387,55.29 387,110.58" fill="#25507a"/><rect x="387" y="55.29" width="55.29" height="55.29" fill="#2d3339"/><polygon points="387,55.29 442.29,55.29 442.29,110.58" fill="#20619f"/><rect x="442.29" y="55.29" width="55.29" height="55.29" fill="#28435c"/><polygon points="442.29,55.29 497.58000000000004,110.58 442.29,110.58" fill="#632070"/><rect x="497.57" y="55.29" width="55.29" height="55.29" fill="#5589ba"/><polygon points="497.57,55.29 552.86,55.29 497.57,110.58" fill="#4b7297"/><rect x="552.8571428571429" y="55.285714285714285" width="55.285714285714285" height="55.285714285714285" fill="#2e2e2e"/><rect x="552.86" y="55.29" width="27.64" height="27.64" fill="#435f79"/><polygon points="552.86,55.29 580.5,55.29 552.86,82.93" fill="#5384b3"/><rect x="580.5" y="55.29" width="27.64" height="27.64" fill="#4e2556"/><polygon points="608.14,55.29 608.14,82.93 580.5,82.93" fill="#4c7499"/><rect x="552.86" y="82.93" width="27.64" height="27.64" fill="#476988"/><polygon points="552.86,82.93 580.5,82.93 580.5,110.57000000000001" fill="#2c363f"/><rect x="580.5" y="82.93" width="27.64" height="27.64" fill="#2e2f31"/><polygon points="580.5,82.93 608.14,82.93 580.5,110.57000000000001" fill="#4e78a0"/><rect x="0" y="110.57" width="55.29" height="55.29" fill="#641f72"/><polygon points="0,110.57 55.29,110.57 55.29,165.85999999999999" fill="#5a2265"/><rect x="55.285714285714285" y="110.57142857142857" width="55.285714285714285" height="55.285714285714285" fill="#2e2e2e"/><rect x="55.29" y="110.57" width="27.64" height="27.64" fill="#362c38"/><polygon points="55.29,110.57 82.93,110.57 55.29,138.20999999999998" fill="#45627f"/><rect x="82.93" y="110.57" width="27.64" height="27.64" fill="#1d6fbd"/><polygon points="110.57000000000001,110.57 110.57000000000001,138.20999999999998 82.93,138.20999999999998" fill="#507ea9"/><rect x="55.29" y="138.21" width="27.64" height="27.64" fill="#312d32"/><polygon points="55.29,138.21 82.93,165.85000000000002 55.29,165.85000000000002" fill="#255079"/><rect x="82.93" y="138.21" width="27.64" height="27.64" fill="#382b3a"/><polygon points="82.93,138.21 110.57000000000001,138.21 82.93,165.85000000000002" fill="#661f74"/><rect x="110.57142857142857" y="110.57142857142857" width="55.285714285714285" height="55.285714285714285" fill="#2e2e2e"/><rect x="110.57" y="110.57" width="27.64" height="27.64" fill="#476989"/><polygon points="110.57,110.57 138.20999999999998,138.20999999999998 110.57,138.20999999999998" fill="#235585"/><rect x="138.21" y="110.57" width="27.64" height="27.64" fill="#486a8b"/><polygon points="138.21,110.57 165.85000000000002,110.57 138.21,138.20999999999998" fill="#4c2654"/><rect x="110.57" y="138.21" width="27.64" height="27.64" fill="#45284a"/><polygon points="110.57,138.21 138.20999999999998,138.21 138.20999999999998,165.85000000000002" fill="#197ddc"/><rect x="138.21" y="138.21" width="27.64" height="27.64" fill="#3d5063"/><polygon points="138.21,138.21 165.85000000000002,138.21 165.85000000000002,165.85000000000002" fill="#486c8d"/><rect x="165.85714285714286" y="110.57142857142857" width="55.285714285714285" height="55.285714285714285" fill="#2e2e2e"/><rect x="165.86" y="110.57" width="27.64" height="27.64" fill="#1b73c6"/><polygon points="165.86,110.57 193.5,110.57 193.5,138.20999999999998" fill="#486a8a"/><rect x="193.5" y="110.57" width="27.64" height="27.64" fill="#1b73c5"/><polygon points="193.5,110.57 221.14,138.20999999999998 193.5,138.20999999999998" fill="#284662"/><rect x="165.86" y="138.21" width="27.64" height="27.64" fill="#4c2654"/><polygon points="193.5,138.21 193.5,165.85000000000002 165.86,165.85000000000002" fill="#293f53"/><rect x="193.5" y="138.21" width="27.64" height="27.64" fill="#422947"/><polygon points="193.5,138.21 221.14,138.21 193.5,165.85000000000002" fill="#4e2556"/><rect x="221.14" y="110.57" width="55.29" height="55.29" fill="#456380"/><polygon points="221.14,110.57 276.43,110.57 221.14,165.85999999999999" fill="#3d5163"/><rect x="276.43" y="110.57" width="55.29" height="55.29" fill="#4e2555"/><polygon points="276.43,110.57 331.72,110.57 276.43,165.85999999999999" fill="#4d2654"/><rect x="331.7142857142857" y="110.57142857142857" width="55.285714285714285" height="55.285714285714285" fill="#2e2e2e"/><rect x="331.71" y="110.57" width="27.64" height="27.64" fill="#5180ab"/><polygon points="331.71,110.57 359.34999999999997,110.57 331.71,138.20999999999998" fill="#303335"/><rect x="359.36" y="110.57" width="27.64" height="27.64" fill="#20619e"/><polygon points="359.36,110.57 387,138.20999999999998 359.36,138.20999999999998" fill="#46274c"/><rect x="331.71" y="138.21" width="27.64" height="27.64" fill="#343d45"/><polygon points="359.34999999999997,138.21 359.34999999999997,165.85000000000002 331.71,165.85000000000002" fill="#582262"/><rect x="359.36" y="138.21" width="27.64" height="27.64" fill="#362c37"/><polygon points="387,138.21 387,165.85000000000002 359.36,165.85000000000002" fill="#741b85"/><rect x="387" y="110.57142857142857" width="55.285714285714285" height="55.285714285714285" fill="#2e2e2e"/><rect x="387" y="110.57" width="27.64" height="27.64" fill="#23588b"/><polygon points="387,110.57 414.64,138.20999999999998 387,138.20999999999998" fill="#47274d"/><rect x="414.64" y="110.57" width="27.64" height="27.64" fill="#4a6f91"/><polygon points="414.64,110.57 442.28,110.57 414.64,138.20999999999998" fill="#5487b6"/><rect x="387" y="138.21" width="27.64" height="27.64" fill="#3e5266"/><polygon points="387,138.21 414.64,138.21 387,165.85000000000002" fill="#353f48"/><rect x="414.64" y="138.21" width="27.64" height="27.64" fill="#47274d"/><polygon points="414.64,138.21 442.28,138.21 414.64,165.85000000000002" fill="#1a77ce"/><rect x="442.2857142857143" y="110.57142857142857" width="55.285714285714285" height="55.285714285714285" fill="#2e2e2e"/><rect x="442.29" y="110.57" width="27.64" height="27.64" fill="#45284b"/><polygon points="442.29,110.57 469.93,138.20999999999998 442.29,138.20999999999998" fill="#46284b"/><rect x="469.93" y="110.57" width="27.64" height="27.64" fill="#5281ae"/><polygon points="469.93,110.57 497.57,110.57 469.93,138.20999999999998" fill="#382b3b"/><rect x="442.29" y="138.21" width="27.64" height="27.64" fill="#225b91"/><polygon points="442.29,138.21 469.93,138.21 469.93,165.85000000000002" fill="#53245c"/><rect x="469.93" y="138.21" width="27.64" height="27.64" fill="#486b8c"/><polygon points="469.93,138.21 497.57,165.85000000000002 469.93,165.85000000000002" fill="#54235e"/><rect x="497.57142857142856" y="110.57142857142857" width="55.285714285714285" height="55.285714285714285" fill="#2e2e2e"/><rect x="497.57" y="110.57" width="27.64" height="27.64" fill="#187fdf"/><polygon points="497.57,110.57 525.21,110.57 525.21,138.20999999999998" fill="#5486b5"/><rect x="525.21" y="110.57" width="27.64" height="27.64" fill="#225c93"/><polygon points="552.85,110.57 552.85,138.20999999999998 525.21,138.20999999999998" fill="#1a78d0"/><rect x="497.57" y="138.21" width="27.64" height="27.64" fill="#1b76cc"/><polygon points="525.21,138.21 525.21,165.85000000000002 497.57,165.85000000000002" fill="#671f74"/><rect x="525.21" y="138.21" width="27.64" height="27.64" fill="#3e5367"/><polygon points="525.21,138.21 552.85,138.21 552.85,165.85000000000002" fill="#4d759c"/><rect x="552.8571428571429" y="110.57142857142857" width="55.285714285714285" height="55.285714285714285" fill="#2e2e2e"/><rect x="552.86" y="110.57" width="27.64" height="27.64" fill="#3b4c5d"/><polygon points="552.86,110.57 580.5,138.20999999999998 552.86,138.20999999999998" fill="#3b2b3e"/><rect x="580.5" y="110.57" width="27.64" height="27.64" fill="#225c93"/><polygon points="580.5,110.57 608.14,110.57 608.14,138.20999999999998" fill="#2c343a"/><rect x="552.86" y="138.21" width="27.64" height="27.64" fill="#442849"/><polygon points="580.5,138.21 580.5,165.85000000000002 552.86,165.85000000000002" fill="#435e77"/><rect x="580.5" y="138.21" width="27.64" height="27.64" fill="#572361"/><polygon points="580.5,138.21 608.14,165.85000000000002 580.5,165.85000000000002" fill="#456582"/><rect x="0" y="165.86" width="55.29" height="55.29" fill="#5282ae"/><polygon points="55.29,165.86 55.29,221.15 0,221.15" fill="#36404a"/><rect x="55.285714285714285" y="165.85714285714286" width="55.285714285714285" height="55.285714285714285" fill="#2e2e2e"/><rect x="55.29" y="165.86" width="27.64" height="27.64" fill="#1b75cb"/><polygon points="55.29,165.86 82.93,165.86 55.29,193.5" fill="#3f2943"/><rect x="82.93" y="165.86" width="27.64" height="27.64" fill="#761a87"/><polygon points="82.93,165.86 110.57000000000001,165.86 82.93,193.5" fill="#671e75"/><rect x="55.29" y="193.5" width="27.64" height="27.64" fill="#476887"/><polygon points="55.29,193.5 82.93,193.5 55.29,221.14" fill="#1e68ae"/><rect x="82.93" y="193.5" width="27.64" height="27.64" fill="#6c1d7b"/><polygon points="82.93,193.5 110.57000000000001,193.5 110.57000000000001,221.14" fill="#284663"/><rect x="110.57" y="165.86" width="55.29" height="55.29" fill="#197cd9"/><polygon points="110.57,165.86 165.85999999999999,165.86 165.85999999999999,221.15" fill="#2d3135"/><rect x="165.85714285714286" y="165.85714285714286" width="55.285714285714285" height="55.285714285714285" fill="#2e2e2e"/><rect x="165.86" y="165.86" width="27.64" height="27.64" fill="#51245a"/><polygon points="193.5,165.86 193.5,193.5 165.86,193.5" fill="#44607b"/><rect x="193.5" y="165.86" width="27.64" height="27.64" fill="#3e5468"/><polygon points="193.5,165.86 221.14,165.86 221.14,193.5" fill="#432848"/><rect x="165.86" y="193.5" width="27.64" height="27.64" fill="#1a78cf"/><polygon points="165.86,193.5 193.5,193.5 165.86,221.14" fill="#2c363f"/><rect x="193.5" y="193.5" width="27.64" height="27.64" fill="#20619e"/><polygon points="193.5,193.5 221.14,193.5 193.5,221.14" fill="#384653"/><rect x="221.14285714285714" y="165.85714285714286" width="55.285714285714285" height="55.285714285714285" fill="#2e2e2e"/><rect x="221.14" y="165.86" width="27.64" height="27.64" fill="#28445f"/><polygon points="221.14,165.86 248.77999999999997,165.86 248.77999999999997,193.5" fill="#2e2e2f"/><rect x="248.79" y="165.86" width="27.64" height="27.64" fill="#3d5062"/><polygon points="248.79,165.86 276.43,193.5 248.79,193.5" fill="#1b75ca"/><rect x="221.14" y="193.5" width="27.64" height="27.64" fill="#342c36"/><polygon points="248.77999999999997,193.5 248.77999999999997,221.14 221.14,221.14" fill="#415b73"/><rect x="248.79" y="193.5" width="27.64" height="27.64" fill="#5487b6"/><polygon points="248.79,193.5 276.43,221.14 248.79,221.14" fill="#31363a"/><rect x="276.43" y="165.86" width="55.29" height="55.29" fill="#701c80"/><polygon points="276.43,165.86 331.72,165.86 331.72,221.15" fill="#671e75"/><rect x="331.7142857142857" y="165.85714285714286" width="55.285714285714285" height="55.285714285714285" fill="#2e2e2e"/><rect x="331.71" y="165.86" width="27.64" height="27.64" fill="#6a1d79"/><polygon points="331.71,165.86 359.34999999999997,193.5 331.71,193.5" fill="#512559"/><rect x="359.36" y="165.86" width="27.64" height="27.64" fill="#4e2556"/><polygon points="387,165.86 387,193.5 359.36,193.5" fill="#1d6ebb"/><rect x="331.71" y="193.5" width="27.64" height="27.64" fill="#2a3b4b"/><polygon points="359.34999999999997,193.5 359.34999999999997,221.14 331.71,221.14" fill="#2e2f30"/><rect x="359.36" y="193.5" width="27.64" height="27.64" fill="#671e75"/><polygon points="359.36,193.5 387,193.5 359.36,221.14" fill="#49274f"/><rect x="387" y="165.86" width="55.29" height="55.29" fill="#353f48"/><polygon points="387,165.86 442.29,221.15 387,221.15" fill="#4a2651"/><rect x="442.29" y="165.86" width="55.29" height="55.29" fill="#2e3032"/><polygon points="497.58000000000004,165.86 497.58000000000004,221.15 442.29,221.15" fill="#51245a"/><rect x="497.57142857142856" y="165.85714285714286" width="55.285714285714285" height="55.285714285714285" fill="#2e2e2e"/><rect x="497.57" y="165.86" width="27.64" height="27.64" fill="#2062a0"/><polygon points="497.57,165.86 525.21,193.5 497.57,193.5" fill="#4b7195"/><rect x="525.21" y="165.86" width="27.64" height="27.64" fill="#1e68ae"/><polygon points="525.21,165.86 552.85,193.5 525.21,193.5" fill="#2063a2"/><rect x="497.57" y="193.5" width="27.64" height="27.64" fill="#4e79a2"/><polygon points="525.21,193.5 525.21,221.14 497.57,221.14" fill="#254f78"/><rect x="525.21" y="193.5" width="27.64" height="27.64" fill="#3e2a42"/><polygon points="525.21,193.5 552.85,193.5 525.21,221.14" fill="#3e2a42"/><rect x="552.8571428571429" y="165.85714285714286" width="55.285714285714285" height="55.285714285714285" fill="#2e2e2e"/><rect x="552.86" y="165.86" width="27.64" height="27.64" fill="#353f47"/><polygon points="552.86,165.86 580.5,165.86 580.5,193.5" fill="#2062a0"/><rect x="580.5" y="165.86" width="27.64" height="27.64" fill="#1a78d0"/><polygon points="608.14,165.86 608.14,193.5 580.5,193.5" fill="#32373c"/><rect x="552.86" y="193.5" width="27.64" height="27.64" fill="#61206d"/><polygon points="552.86,193.5 580.5,193.5 580.5,221.14" fill="#25517b"/><rect x="580.5" y="193.5" width="27.64" height="27.64" fill="#5485b4"/><polygon points="608.14,193.5 608.14,221.14 580.5,221.14" fill="#2f3132"/><rect x="0" y="221.14285714285714" width="55.285714285714285" height="55.285714285714285" fill="#2e2e2e"/><rect x="0" y="221.14" width="27.64" height="27.64" fill="#721b82"/><polygon points="27.64,221.14 27.64,248.77999999999997 0,248.77999999999997" fill="#27496a"/><rect x="27.64" y="221.14" width="27.64" height="27.64" fill="#2f3132"/><polygon points="27.64,221.14 55.28,248.77999999999997 27.64,248.77999999999997" fill="#303234"/><rect x="0" y="248.79" width="27.64" height="27.64" fill="#1d6fbd"/><polygon points="0,248.79 27.64,276.43 0,276.43" fill="#215e98"/><rect x="27.64" y="248.79" width="27.64" height="27.64" fill="#1c71c0"/><polygon points="27.64,248.79 55.28,248.79 55.28,276.43" fill="#2a3f53"/><rect x="55.285714285714285" y="221.14285714285714" width="55.285714285714285" height="55.285714285714285" fill="#2e2e2e"/><rect x="55.29" y="221.14" width="27.64" height="27.64" fill="#33383e"/><polygon points="55.29,221.14 82.93,221.14 55.29,248.77999999999997" fill="#45284b"/><rect x="82.93" y="221.14" width="27.64" height="27.64" fill="#394957"/><polygon points="82.93,221.14 110.57000000000001,221.14 110.57000000000001,248.77999999999997" fill="#24527d"/><rect x="55.29" y="248.79" width="27.64" height="27.64" fill="#197bd8"/><polygon points="82.93,248.79 82.93,276.43 55.29,276.43" fill="#2062a0"/><rect x="82.93" y="248.79" width="27.64" height="27.64" fill="#225b90"/><polygon points="82.93,248.79 110.57000000000001,248.79 82.93,276.43" fill="#4b7297"/><rect x="110.57" y="221.14" width="55.29" height="55.29" fill="#721b83"/><polygon points="110.57,221.14 165.85999999999999,276.43 110.57,276.43" fill="#502558"/><rect x="165.86" y="221.14" width="55.29" height="55.29" fill="#303336"/><polygon points="221.15,221.14 221.15,276.43 165.86,276.43" fill="#691e77"/><rect x="221.14285714285714" y="221.14285714285714" width="55.285714285714285" height="55.285714285714285" fill="#2e2e2e"/><rect x="221.14" y="221.14" width="27.64" height="27.64" fill="#235685"/><polygon points="221.14,221.14 248.77999999999997,221.14 248.77999999999997,248.77999999999997" fill="#60206c"/><rect x="248.79" y="221.14" width="27.64" height="27.64" fill="#384653"/><polygon points="248.79,221.14 276.43,221.14 248.79,248.77999999999997" fill="#6c1d7b"/><rect x="221.14" y="248.79" width="27.64" height="27.64" fill="#5281ae"/><polygon points="221.14,248.79 248.77999999999997,276.43 221.14,276.43" fill="#53245c"/><rect x="248.79" y="248.79" width="27.64" height="27.64" fill="#303335"/><polygon points="276.43,248.79 276.43,276.43 248.79,276.43" fill="#24527c"/><rect x="276.43" y="221.14" width="55.29" height="55.29" fill="#4e79a1"/><polygon points="276.43,221.14 331.72,221.14 331.72,276.43" fill="#52245b"/><rect x="331.71" y="221.14" width="55.29" height="55.29" fill="#4f7ca5"/><polygon points="387,221.14 387,276.43 331.71,276.43" fill="#2c363f"/><rect x="387" y="221.14285714285714" width="55.285714285714285" height="55.285714285714285" fill="#2e2e2e"/><rect x="387" y="221.14" width="27.64" height="27.64" fill="#415a72"/><polygon points="387,221.14 414.64,221.14 387,248.77999999999997" fill="#1e6bb5"/><rect x="414.64" y="221.14" width="27.64" height="27.64" fill="#1f65a6"/><polygon points="414.64,221.14 442.28,248.77999999999997 414.64,248.77999999999997" fill="#1f65a7"/><rect x="387" y="248.79" width="27.64" height="27.64" fill="#476989"/><polygon points="387,248.79 414.64,248.79 414.64,276.43" fill="#294055"/><rect x="414.64" y="248.79" width="27.64" height="27.64" fill="#3c2a40"/><polygon points="414.64,248.79 442.28,248.79 414.64,276.43" fill="#1b77cd"/><rect x="442.29" y="221.14" width="55.29" height="55.29" fill="#496c8d"/><polygon points="442.29,221.14 497.58000000000004,276.43 442.29,276.43" fill="#2f2e2f"/><rect x="497.57" y="221.14" width="55.29" height="55.29" fill="#486989"/><polygon points="552.86,221.14 552.86,276.43 497.57,276.43" fill="#1d6cb6"/><rect x="552.8571428571429" y="221.14285714285714" width="55.285714285714285" height="55.285714285714285" fill="#2e2e2e"/><rect x="552.86" y="221.14" width="27.64" height="27.64" fill="#422847"/><polygon points="552.86,221.14 580.5,221.14 552.86,248.77999999999997" fill="#4b7194"/><rect x="580.5" y="221.14" width="27.64" height="27.64" fill="#3f566b"/><polygon points="580.5,221.14 608.14,221.14 608.14,248.77999999999997" fill="#254f77"/><rect x="552.86" y="248.79" width="27.64" height="27.64" fill="#2a3c4c"/><polygon points="552.86,248.79 580.5,248.79 580.5,276.43" fill="#47274d"/><rect x="580.5" y="248.79" width="27.64" height="27.64" fill="#22598d"/><polygon points="580.5,248.79 608.14,248.79 608.14,276.43" fill="#3b2a3e"/><rect x="0" y="276.42857142857144" width="55.285714285714285" height="55.285714285714285" fill="#2e2e2e"/><rect x="0" y="276.43" width="27.64" height="27.64" fill="#4c2653"/><polygon points="27.64,276.43 27.64,304.07 0,304.07" fill="#24517c"/><rect x="27.64" y="276.43" width="27.64" height="27.64" fill="#225a8e"/><polygon points="27.64,276.43 55.28,276.43 27.64,304.07" fill="#568abb"/><rect x="0" y="304.07" width="27.64" height="27.64" fill="#384552"/><polygon points="27.64,304.07 27.64,331.71 0,331.71" fill="#254e75"/><rect x="27.64" y="304.07" width="27.64" height="27.64" fill="#4f2557"/><polygon points="27.64,304.07 55.28,304.07 27.64,331.71" fill="#5a2265"/><rect x="55.29" y="276.43" width="55.29" height="55.29" fill="#681e76"/><polygon points="55.29,276.43 110.58,331.72 55.29,331.72" fill="#362c38"/><rect x="110.57" y="276.43" width="55.29" height="55.29" fill="#62206f"/><polygon points="110.57,276.43 165.85999999999999,276.43 165.85999999999999,331.72" fill="#3d2a41"/><rect x="165.86" y="276.43" width="55.29" height="55.29" fill="#661f74"/><polygon points="221.15,276.43 221.15,331.72 165.86,331.72" fill="#2b3a49"/><rect x="221.14285714285714" y="276.42857142857144" width="55.285714285714285" height="55.285714285714285" fill="#2e2e2e"/><rect x="221.14" y="276.43" width="27.64" height="27.64" fill="#394856"/><polygon points="248.77999999999997,276.43 248.77999999999997,304.07 221.14,304.07" fill="#6e1d7d"/><rect x="248.79" y="276.43" width="27.64" height="27.64" fill="#651f73"/><polygon points="248.79,276.43 276.43,276.43 276.43,304.07" fill="#4c7398"/><rect x="221.14" y="304.07" width="27.64" height="27.64" fill="#507ea8"/><polygon points="221.14,304.07 248.77999999999997,304.07 221.14,331.71" fill="#372c39"/><rect x="248.79" y="304.07" width="27.64" height="27.64" fill="#46274c"/><polygon points="276.43,304.07 276.43,331.71 248.79,331.71" fill="#2e2f30"/><rect x="276.43" y="276.43" width="55.29" height="55.29" fill="#671f74"/><polygon points="276.43,276.43 331.72,276.43 331.72,331.72" fill="#5485b4"/><rect x="331.7142857142857" y="276.42857142857144" width="55.285714285714285" height="55.285714285714285" fill="#2e2e2e"/><rect x="331.71" y="276.43" width="27.64" height="27.64" fill="#507ca7"/><polygon points="359.34999999999997,276.43 359.34999999999997,304.07 331.71,304.07" fill="#4b2652"/><rect x="359.36" y="276.43" width="27.64" height="27.64" fill="#1d6eba"/><polygon points="359.36,276.43 387,276.43 387,304.07" fill="#4f7ba4"/><rect x="331.71" y="304.07" width="27.64" height="27.64" fill="#751b87"/><polygon points="331.71,304.07 359.34999999999997,331.71 331.71,331.71" fill="#2e2e2e"/><rect x="359.36" y="304.07" width="27.64" height="27.64" fill="#4c749a"/><polygon points="387,304.07 387,331.71 359.36,331.71" fill="#47274d"/><rect x="387" y="276.42857142857144" width="55.285714285714285" height="55.285714285714285" fill="#2e2e2e"/><rect x="387" y="276.43" width="27.64" height="27.64" fill="#245482"/><polygon points="387,276.43 414.64,276.43 414.64,304.07" fill="#5383b1"/><rect x="414.64" y="276.43" width="27.64" height="27.64" fill="#5384b3"/><polygon points="414.64,276.43 442.28,276.43 442.28,304.07" fill="#3f566c"/><rect x="387" y="304.07" width="27.64" height="27.64" fill="#225c93"/><polygon points="387,304.07 414.64,304.07 387,331.71" fill="#1e69af"/><rect x="414.64" y="304.07" width="27.64" height="27.64" fill="#52245b"/><polygon points="414.64,304.07 442.28,304.07 442.28,331.71" fill="#4b7297"/><rect x="442.29" y="276.43" width="55.29" height="55.29" fill="#1d6fbc"/><polygon points="442.29,276.43 497.58000000000004,276.43 442.29,331.72" fill="#3f5469"/><rect x="497.57" y="276.43" width="55.29" height="55.29" fill="#5281ae"/><polygon points="497.57,276.43 552.86,276.43 552.86,331.72" fill="#691e77"/><rect x="552.86" y="276.43" width="55.29" height="55.29" fill="#6f1c7e"/><polygon points="608.15,276.43 608.15,331.72 552.86,331.72" fill="#62206f"/><rect x="0" y="331.7142857142857" width="55.285714285714285" height="55.285714285714285" fill="#2e2e2e"/><rect x="0" y="331.71" width="27.64" height="27.64" fill="#48274f"/><polygon points="0,331.71 27.64,331.71 27.64,359.34999999999997" fill="#342c36"/><rect x="27.64" y="331.71" width="27.64" height="27.64" fill="#27496a"/><polygon points="27.64,331.71 55.28,331.71 27.64,359.34999999999997" fill="#2b3843"/><rect x="0" y="359.36" width="27.64" height="27.64" fill="#1f65a7"/><polygon points="0,359.36 27.64,387 0,387" fill="#392b3c"/><rect x="27.64" y="359.36" width="27.64" height="27.64" fill="#4e2556"/><polygon points="55.28,359.36 55.28,387 27.64,387" fill="#37434f"/><rect x="55.285714285714285" y="331.7142857142857" width="55.285714285714285" height="55.285714285714285" fill="#2e2e2e"/><rect x="55.29" y="331.71" width="27.64" height="27.64" fill="#3a2b3d"/><polygon points="55.29,331.71 82.93,331.71 55.29,359.34999999999997" fill="#582362"/><rect x="82.93" y="331.71" width="27.64" height="27.64" fill="#3c5062"/><polygon points="110.57000000000001,331.71 110.57000000000001,359.34999999999997 82.93,359.34999999999997" fill="#496c8d"/><rect x="55.29" y="359.36" width="27.64" height="27.64" fill="#6a1d79"/><polygon points="55.29,359.36 82.93,359.36 82.93,387" fill="#303234"/><rect x="82.93" y="359.36" width="27.64" height="27.64" fill="#496c8d"/><polygon points="82.93,359.36 110.57000000000001,359.36 82.93,387" fill="#5a2264"/><rect x="110.57" y="331.71" width="55.29" height="55.29" fill="#5281ad"/><polygon points="110.57,331.71 165.85999999999999,387 110.57,387" fill="#1b75c9"/><rect x="165.86" y="331.71" width="55.29" height="55.29" fill="#1a7ad4"/><polygon points="221.15,331.71 221.15,387 165.86,387" fill="#1c71c1"/><rect x="221.14" y="331.71" width="55.29" height="55.29" fill="#4c7499"/><polygon points="221.14,331.71 276.43,331.71 276.43,387" fill="#2f3031"/><rect x="276.43" y="331.71" width="55.29" height="55.29" fill="#274868"/><polygon points="331.72,331.71 331.72,387 276.43,387" fill="#5282af"/><rect x="331.71" y="331.71" width="55.29" height="55.29" fill="#23598c"/><polygon points="331.71,331.71 387,331.71 387,387" fill="#48274e"/><rect x="387" y="331.71" width="55.29" height="55.29" fill="#322d33"/><polygon points="442.29,331.71 442.29,387 387,387" fill="#4a2651"/><rect x="442.2857142857143" y="331.7142857142857" width="55.285714285714285" height="55.285714285714285" fill="#2e2e2e"/><rect x="442.29" y="331.71" width="27.64" height="27.64" fill="#496d8f"/><polygon points="442.29,331.71 469.93,331.71 469.93,359.34999999999997" fill="#1e6ab3"/><rect x="469.93" y="331.71" width="27.64" height="27.64" fill="#197bd7"/><polygon points="497.57,331.71 497.57,359.34999999999997 469.93,359.34999999999997" fill="#294157"/><rect x="442.29" y="359.36" width="27.64" height="27.64" fill="#303233"/><polygon points="442.29,359.36 469.93,359.36 442.29,387" fill="#3b2a3f"/><rect x="469.93" y="359.36" width="27.64" height="27.64" fill="#5589ba"/><polygon points="469.93,359.36 497.57,359.36 497.57,387" fill="#37434f"/><rect x="497.57" y="331.71" width="55.29" height="55.29" fill="#4a7094"/><polygon points="497.57,331.71 552.86,387 497.57,387" fill="#1a79d2"/><rect x="552.8571428571429" y="331.7142857142857" width="55.285714285714285" height="55.285714285714285" fill="#2e2e2e"/><rect x="552.86" y="331.71" width="27.64" height="27.64" fill="#425e77"/><polygon points="552.86,331.71 580.5,331.71 552.86,359.34999999999997" fill="#5b2266"/><rect x="580.5" y="331.71" width="27.64" height="27.64" fill="#5b2266"/><polygon points="580.5,331.71 608.14,359.34999999999997 580.5,359.34999999999997" fill="#1c71c0"/><rect x="552.86" y="359.36" width="27.64" height="27.64" fill="#215d96"/><polygon points="552.86,359.36 580.5,387 552.86,387" fill="#1d6db8"/><rect x="580.5" y="359.36" width="27.64" height="27.64" fill="#422947"/><polygon points="580.5,359.36 608.14,387 580.5,387" fill="#2d3135"/></g></svg>