<?xml version="1.0" standalone="no"?><svg xmlns:xlink="http://www.w3.org/1999/xlink" xmlns="http://www.w3.org/2000/svg" viewBox="0 0 1920 1221.8219130103053" preserveAspectRatio="xMaxYMax slice"><g transform="scale(3.1571625659181013)"><rect x="0" y="0" width="608.1428571428571" height="387" fill="#2e2e2e"/><circle cx="27.645" cy="27.645" r="27.645" fill="#332d2e"/><circle cx="82.935" cy="27.645" r="27.645" fill="#662232"/><circle cx="138.215" cy="27.645" r="27.645" fill="#6b2132"/><rect x="165.85714285714286" y="0" width="55.285714285714285" height="55.285714285714285" fill="#2e2e2e"/><circle cx="179.68" cy="13.82" r="13.82" fill="#28325b"/><circle cx="207.32" cy="13.82" r="13.82" fill="#761e33"/><circle cx="179.68" cy="41.46" r="13.82" fill="#25357a"/><circle cx="207.32" cy="41.46" r="13.82" fill="#283360"/><circle cx="248.785" cy="27.645" r="27.645" fill="#761e33"/><circle cx="304.075" cy="27.645" r="27.645" fill="#612331"/><rect x="331.7142857142857" y="0" width="55.285714285714285" height="55.285714285714285" fill="#2e2e2e"/><circle cx="345.53" cy="13.82" r="13.82" fill="#193ed5"/><circle cx="373.18" cy="13.82" r="13.82" fill="#2b3045"/><circle cx="345.53" cy="41.46" r="13.82" fill="#881a34"/><circle cx="373.18" cy="41.46" r="13.82" fill="#20389c"/><rect x="387" y="0" width="55.285714285714285" height="55.285714285714285" fill="#2e2e2e"/><circle cx="400.82" cy="13.82" r="13.82" fill="#5b2431"/><circle cx="428.46" cy="13.82" r="13.82" fill="#1e3bb3"/><circle cx="400.82" cy="41.46" r="13.82" fill="#7d1d33"/><circle cx="428.46" cy="41.46" r="13.82" fill="#652232"/><rect x="442.2857142857143" y="0" width="55.285714285714285" height="55.285714285714285" fill="#2e2e2e"/><circle cx="456.11" cy="13.82" r="13.82" fill="#871a34"/><circle cx="483.75" cy="13.82" r="13.82" fill="#452930"/><circle cx="456.11" cy="41.46" r="13.82" fill="#263472"/><circle cx="483.75" cy="41.46" r="13.82" fill="#402a2f"/><circle cx="525.215" cy="27.645" r="27.645" fill="#861b34"/><rect x="552.8571428571429" y="0" width="55.285714285714285" height="55.285714285714285" fill="#2e2e2e"/><circle cx="566.6800000000001" cy="13.82" r="13.82" fill="#5d2431"/><circle cx="594.32" cy="13.82" r="13.82" fill="#702032"/><circle cx="566.6800000000001" cy="41.46" r="13.82" fill="#452930"/><circle cx="594.32" cy="41.46" r="13.82" fill="#2e2e2e"/><circle cx="27.645" cy="82.935" r="27.645" fill="#2a3151"/><rect x="55.285714285714285" y="55.285714285714285" width="55.285714285714285" height="55.285714285714285" fill="#2e2e2e"/><circle cx="69.11" cy="69.11" r="13.82" fill="#29325a"/><circle cx="96.75" cy="69.11" r="13.82" fill="#7a1d33"/><circle cx="69.11" cy="96.75" r="13.82" fill="#382c2f"/><circle cx="96.75" cy="96.75" r="13.82" fill="#402a2f"/><rect x="110.57142857142857" y="55.285714285714285" width="55.285714285714285" height="55.285714285714285" fill="#2e2e2e"/><circle cx="124.38999999999999" cy="69.11" r="13.82" fill="#362c2f"/><circle cx="152.03" cy="69.11" r="13.82" fill="#4c2730"/><circle cx="124.38999999999999" cy="96.75" r="13.82" fill="#711f32"/><circle cx="152.03" cy="96.75" r="13.82" fill="#1c3cc2"/><circle cx="193.50500000000002" cy="82.935" r="27.645" fill="#1c3cc3"/><circle cx="248.785" cy="82.935" r="27.645" fill="#412a2f"/><rect x="276.42857142857144" y="55.285714285714285" width="55.285714285714285" height="55.285714285714285" fill="#2e2e2e"/><circle cx="290.25" cy="69.11" r="13.82" fill="#1c3cbd"/><circle cx="317.89" cy="69.11" r="13.82" fill="#7d1d33"/><circle cx="290.25" cy="96.75" r="13.82" fill="#3c2b2f"/><circle cx="317.89" cy="96.75" r="13.82" fill="#193ed8"/><circle cx="359.35499999999996" cy="82.935" r="27.645" fill="#6a2132"/><rect x="387" y="55.285714285714285" width="55.285714285714285" height="55.285714285714285" fill="#2e2e2e"/><circle cx="400.82" cy="69.11" r="13.82" fill="#293254"/><circle cx="428.46" cy="69.11" r="13.82" fill="#472830"/><circle cx="400.82" cy="96.75" r="13.82" fill="#562531"/><circle cx="428.46" cy="96.75" r="13.82" fill="#1d3bb9"/><circle cx="469.935" cy="82.935" r="27.645" fill="#1c3cc0"/><circle cx="525.215" cy="82.935" r="27.645" fill="#6b2132"/><circle cx="580.505" cy="82.935" r="27.645" fill="#43292f"/><rect x="0" y="110.57142857142857" width="55.285714285714285" height="55.285714285714285" fill="#2e2e2e"/><circle cx="13.82" cy="124.38999999999999" r="13.82" fill="#44292f"/><circle cx="41.46" cy="124.38999999999999" r="13.82" fill="#1f3aac"/><circle cx="13.82" cy="152.03" r="13.82" fill="#28325c"/><circle cx="41.46" cy="152.03" r="13.82" fill="#2a3150"/><rect x="55.285714285714285" y="110.57142857142857" width="55.285714285714285" height="55.285714285714285" fill="#2e2e2e"/><circle cx="69.11" cy="124.38999999999999" r="13.82" fill="#1e3aad"/><circle cx="96.75" cy="124.38999999999999" r="13.82" fill="#21389a"/><circle cx="69.11" cy="152.03" r="13.82" fill="#233789"/><circle cx="96.75" cy="152.03" r="13.82" fill="#1c3cc2"/><rect x="110.57142857142857" y="110.57142857142857" width="55.285714285714285" height="55.285714285714285" fill="#2e2e2e"/><circle cx="124.38999999999999" cy="124.38999999999999" r="13.82" fill="#253578"/><circle cx="152.03" cy="124.38999999999999" r="13.82" fill="#592431"/><circle cx="124.38999999999999" cy="152.03" r="13.82" fill="#22378d"/><circle cx="152.03" cy="152.03" r="13.82" fill="#851b34"/><circle cx="193.50500000000002" cy="138.215" r="27.645" fill="#23378b"/><rect x="221.14285714285714" y="110.57142857142857" width="55.285714285714285" height="55.285714285714285" fill="#2e2e2e"/><circle cx="234.95999999999998" cy="124.38999999999999" r="13.82" fill="#44292f"/><circle cx="262.61" cy="124.38999999999999" r="13.82" fill="#24357c"/><circle cx="234.95999999999998" cy="152.03" r="13.82" fill="#602331"/><circle cx="262.61" cy="152.03" r="13.82" fill="#572531"/><circle cx="304.075" cy="138.215" r="27.645" fill="#771e33"/><circle cx="359.35499999999996" cy="138.215" r="27.645" fill="#2039a1"/><rect x="387" y="110.57142857142857" width="55.285714285714285" height="55.285714285714285" fill="#2e2e2e"/><circle cx="400.82" cy="124.38999999999999" r="13.82" fill="#5a2431"/><circle cx="428.46" cy="124.38999999999999" r="13.82" fill="#24357b"/><circle cx="400.82" cy="152.03" r="13.82" fill="#1b3dc8"/><circle cx="428.46" cy="152.03" r="13.82" fill="#2b3045"/><circle cx="469.935" cy="138.215" r="27.645" fill="#2d2f35"/><circle cx="525.215" cy="138.215" r="27.645" fill="#263470"/><circle cx="580.505" cy="138.215" r="27.645" fill="#263470"/><rect x="0" y="165.85714285714286" width="55.285714285714285" height="55.285714285714285" fill="#2e2e2e"/><circle cx="13.82" cy="179.68" r="13.82" fill="#2d2e32"/><circle cx="41.46" cy="179.68" r="13.82" fill="#801c33"/><circle cx="13.82" cy="207.32" r="13.82" fill="#5e2331"/><circle cx="41.46" cy="207.32" r="13.82" fill="#293253"/><rect x="55.285714285714285" y="165.85714285714286" width="55.285714285714285" height="55.285714285714285" fill="#2e2e2e"/><circle cx="69.11" cy="179.68" r="13.82" fill="#2c3041"/><circle cx="96.75" cy="179.68" r="13.82" fill="#1a3dce"/><circle cx="69.11" cy="207.32" r="13.82" fill="#5d2431"/><circle cx="96.75" cy="207.32" r="13.82" fill="#21389c"/><rect x="110.57142857142857" y="165.85714285714286" width="55.285714285714285" height="55.285714285714285" fill="#2e2e2e"/><circle cx="124.38999999999999" cy="179.68" r="13.82" fill="#352d2e"/><circle cx="152.03" cy="179.68" r="13.82" fill="#28335d"/><circle cx="124.38999999999999" cy="207.32" r="13.82" fill="#701f32"/><circle cx="152.03" cy="207.32" r="13.82" fill="#26346f"/><rect x="165.85714285714286" y="165.85714285714286" width="55.285714285714285" height="55.285714285714285" fill="#2e2e2e"/><circle cx="179.68" cy="179.68" r="13.82" fill="#233685"/><circle cx="207.32" cy="179.68" r="13.82" fill="#29325b"/><circle cx="179.68" cy="207.32" r="13.82" fill="#6d2032"/><circle cx="207.32" cy="207.32" r="13.82" fill="#392c2f"/><rect x="221.14285714285714" y="165.85714285714286" width="55.285714285714285" height="55.285714285714285" fill="#2e2e2e"/><circle cx="234.95999999999998" cy="179.68" r="13.82" fill="#582531"/><circle cx="262.61" cy="179.68" r="13.82" fill="#1b3dc9"/><circle cx="234.95999999999998" cy="207.32" r="13.82" fill="#741f33"/><circle cx="262.61" cy="207.32" r="13.82" fill="#3f2a2f"/><circle cx="304.075" cy="193.50500000000002" r="27.645" fill="#183fe0"/><rect x="331.7142857142857" y="165.85714285714286" width="55.285714285714285" height="55.285714285714285" fill="#2e2e2e"/><circle cx="345.53" cy="179.68" r="13.82" fill="#2a3151"/><circle cx="373.18" cy="179.68" r="13.82" fill="#2e2e2f"/><circle cx="345.53" cy="207.32" r="13.82" fill="#26346f"/><circle cx="373.18" cy="207.32" r="13.82" fill="#2b3046"/><rect x="387" y="165.85714285714286" width="55.285714285714285" height="55.285714285714285" fill="#2e2e2e"/><circle cx="400.82" cy="179.68" r="13.82" fill="#2b3148"/><circle cx="428.46" cy="179.68" r="13.82" fill="#223791"/><circle cx="400.82" cy="207.32" r="13.82" fill="#3a2b2f"/><circle cx="428.46" cy="207.32" r="13.82" fill="#891a34"/><circle cx="469.935" cy="193.50500000000002" r="27.645" fill="#761e33"/><rect x="497.57142857142856" y="165.85714285714286" width="55.285714285714285" height="55.285714285714285" fill="#2e2e2e"/><circle cx="511.39" cy="179.68" r="13.82" fill="#841b34"/><circle cx="539.0300000000001" cy="179.68" r="13.82" fill="#233685"/><circle cx="511.39" cy="207.32" r="13.82" fill="#512630"/><circle cx="539.0300000000001" cy="207.32" r="13.82" fill="#751e33"/><rect x="552.8571428571429" y="165.85714285714286" width="55.285714285714285" height="55.285714285714285" fill="#2e2e2e"/><circle cx="566.6800000000001" cy="179.68" r="13.82" fill="#223892"/><circle cx="594.32" cy="179.68" r="13.82" fill="#2d2f34"/><circle cx="566.6800000000001" cy="207.32" r="13.82" fill="#462930"/><circle cx="594.32" cy="207.32" r="13.82" fill="#572531"/><circle cx="27.645" cy="248.785" r="27.645" fill="#293253"/><rect x="55.285714285714285" y="221.14285714285714" width="55.285714285714285" height="55.285714285714285" fill="#2e2e2e"/><circle cx="69.11" cy="234.95999999999998" r="13.82" fill="#1a3dce"/><circle cx="96.75" cy="234.95999999999998" r="13.82" fill="#2b3044"/><circle cx="69.11" cy="262.61" r="13.82" fill="#1b3cc5"/><circle cx="96.75" cy="262.61" r="13.82" fill="#582531"/><rect x="110.57142857142857" y="221.14285714285714" width="55.285714285714285" height="55.285714285714285" fill="#2e2e2e"/><circle cx="124.38999999999999" cy="234.95999999999998" r="13.82" fill="#7e1d33"/><circle cx="152.03" cy="234.95999999999998" r="13.82" fill="#871a34"/><circle cx="124.38999999999999" cy="262.61" r="13.82" fill="#602331"/><circle cx="152.03" cy="262.61" r="13.82" fill="#4b2830"/><rect x="165.85714285714286" y="221.14285714285714" width="55.285714285714285" height="55.285714285714285" fill="#2e2e2e"/><circle cx="179.68" cy="234.95999999999998" r="13.82" fill="#3b2b2f"/><circle cx="207.32" cy="234.95999999999998" r="13.82" fill="#1a3dcf"/><circle cx="179.68" cy="262.61" r="13.82" fill="#263471"/><circle cx="207.32" cy="262.61" r="13.82" fill="#412a2f"/><circle cx="248.785" cy="248.785" r="27.645" fill="#1e3ab0"/><rect x="276.42857142857144" y="221.14285714285714" width="55.285714285714285" height="55.285714285714285" fill="#2e2e2e"/><circle cx="290.25" cy="234.95999999999998" r="13.82" fill="#5a2431"/><circle cx="317.89" cy="234.95999999999998" r="13.82" fill="#312d2e"/><circle cx="290.25" cy="262.61" r="13.82" fill="#24367f"/><circle cx="317.89" cy="262.61" r="13.82" fill="#791d33"/><rect x="331.7142857142857" y="221.14285714285714" width="55.285714285714285" height="55.285714285714285" fill="#2e2e2e"/><circle cx="345.53" cy="234.95999999999998" r="13.82" fill="#193eda"/><circle cx="373.18" cy="234.95999999999998" r="13.82" fill="#7b1d33"/><circle cx="345.53" cy="262.61" r="13.82" fill="#273367"/><circle cx="373.18" cy="262.61" r="13.82" fill="#1f3aab"/><rect x="387" y="221.14285714285714" width="55.285714285714285" height="55.285714285714285" fill="#2e2e2e"/><circle cx="400.82" cy="234.95999999999998" r="13.82" fill="#721f33"/><circle cx="428.46" cy="234.95999999999998" r="13.82" fill="#293153"/><circle cx="400.82" cy="262.61" r="13.82" fill="#482830"/><circle cx="428.46" cy="262.61" r="13.82" fill="#2e2e31"/><circle cx="469.935" cy="248.785" r="27.645" fill="#1d3bbb"/><rect x="497.57142857142856" y="221.14285714285714" width="55.285714285714285" height="55.285714285714285" fill="#2e2e2e"/><circle cx="511.39" cy="234.95999999999998" r="13.82" fill="#492830"/><circle cx="539.0300000000001" cy="234.95999999999998" r="13.82" fill="#1f3aac"/><circle cx="511.39" cy="262.61" r="13.82" fill="#2d2f37"/><circle cx="539.0300000000001" cy="262.61" r="13.82" fill="#811c33"/><circle cx="580.505" cy="248.785" r="27.645" fill="#312d2e"/><circle cx="27.645" cy="304.075" r="27.645" fill="#243682"/><rect x="55.285714285714285" y="276.42857142857144" width="55.285714285714285" height="55.285714285714285" fill="#2e2e2e"/><circle cx="69.11" cy="290.25" r="13.82" fill="#283361"/><circle cx="96.75" cy="290.25" r="13.82" fill="#243683"/><circle cx="69.11" cy="317.89" r="13.82" fill="#452930"/><circle cx="96.75" cy="317.89" r="13.82" fill="#472830"/><circle cx="138.215" cy="304.075" r="27.645" fill="#731f33"/><rect x="165.85714285714286" y="276.42857142857144" width="55.285714285714285" height="55.285714285714285" fill="#2e2e2e"/><circle cx="179.68" cy="290.25" r="13.82" fill="#193ed7"/><circle cx="207.32" cy="290.25" r="13.82" fill="#273468"/><circle cx="179.68" cy="317.89" r="13.82" fill="#4c2730"/><circle cx="207.32" cy="317.89" r="13.82" fill="#2a3150"/><rect x="221.14285714285714" y="276.42857142857144" width="55.285714285714285" height="55.285714285714285" fill="#2e2e2e"/><circle cx="234.95999999999998" cy="290.25" r="13.82" fill="#24367e"/><circle cx="262.61" cy="290.25" r="13.82" fill="#482830"/><circle cx="234.95999999999998" cy="317.89" r="13.82" fill="#402a2f"/><circle cx="262.61" cy="317.89" r="13.82" fill="#682132"/><rect x="276.42857142857144" y="276.42857142857144" width="55.285714285714285" height="55.285714285714285" fill="#2e2e2e"/><circle cx="290.25" cy="290.25" r="13.82" fill="#213899"/><circle cx="317.89" cy="290.25" r="13.82" fill="#622331"/><circle cx="290.25" cy="317.89" r="13.82" fill="#25357b"/><circle cx="317.89" cy="317.89" r="13.82" fill="#322d2e"/><circle cx="359.35499999999996" cy="304.075" r="27.645" fill="#332d2e"/><rect x="387" y="276.42857142857144" width="55.285714285714285" height="55.285714285714285" fill="#2e2e2e"/><circle cx="400.82" cy="290.25" r="13.82" fill="#22378d"/><circle cx="428.46" cy="290.25" r="13.82" fill="#7d1d33"/><circle cx="400.82" cy="317.89" r="13.82" fill="#1b3cc5"/><circle cx="428.46" cy="317.89" r="13.82" fill="#1a3ed3"/><rect x="442.2857142857143" y="276.42857142857144" width="55.285714285714285" height="55.285714285714285" fill="#2e2e2e"/><circle cx="456.11" cy="290.25" r="13.82" fill="#273363"/><circle cx="483.75" cy="290.25" r="13.82" fill="#5c2431"/><circle cx="456.11" cy="317.89" r="13.82" fill="#592531"/><circle cx="483.75" cy="317.89" r="13.82" fill="#702032"/><rect x="497.57142857142856" y="276.42857142857144" width="55.285714285714285" height="55.285714285714285" fill="#2e2e2e"/><circle cx="511.39" cy="290.25" r="13.82" fill="#1b3dcc"/><circle cx="539.0300000000001" cy="290.25" r="13.82" fill="#233685"/><circle cx="511.39" cy="317.89" r="13.82" fill="#28335e"/><circle cx="539.0300000000001" cy="317.89" r="13.82" fill="#312d2e"/><circle cx="580.505" cy="304.075" r="27.645" fill="#582531"/><rect x="0" y="331.7142857142857" width="55.285714285714285" height="55.285714285714285" fill="#2e2e2e"/><circle cx="13.82" cy="345.53" r="13.82" fill="#1d3bbb"/><circle cx="41.46" cy="345.53" r="13.82" fill="#422a2f"/><circle cx="13.82" cy="373.18" r="13.82" fill="#662232"/><circle cx="41.46" cy="373.18" r="13.82" fill="#193edb"/><rect x="55.285714285714285" y="331.7142857142857" width="55.285714285714285" height="55.285714285714285" fill="#2e2e2e"/><circle cx="69.11" cy="345.53" r="13.82" fill="#233687"/><circle cx="96.75" cy="345.53" r="13.82" fill="#462930"/><circle cx="69.11" cy="373.18" r="13.82" fill="#422a2f"/><circle cx="96.75" cy="373.18" r="13.82" fill="#3e2a2f"/><circle cx="138.215" cy="359.35499999999996" r="27.645" fill="#652232"/><rect x="165.85714285714286" y="331.7142857142857" width="55.285714285714285" height="55.285714285714285" fill="#2e2e2e"/><circle cx="179.68" cy="345.53" r="13.82" fill="#183fdd"/><circle cx="207.32" cy="345.53" r="13.82" fill="#1c3cc0"/><circle cx="179.68" cy="373.18" r="13.82" fill="#213899"/><circle cx="207.32" cy="373.18" r="13.82" fill="#5a2431"/><rect x="221.14285714285714" y="331.7142857142857" width="55.285714285714285" height="55.285714285714285" fill="#2e2e2e"/><circle cx="234.95999999999998" cy="345.53" r="13.82" fill="#2039a4"/><circle cx="262.61" cy="345.53" r="13.82" fill="#791d33"/><circle cx="234.95999999999998" cy="373.18" r="13.82" fill="#1a3dcd"/><circle cx="262.61" cy="373.18" r="13.82" fill="#223790"/><circle cx="304.075" cy="359.35499999999996" r="27.645" fill="#791d33"/><rect x="331.7142857142857" y="331.7142857142857" width="55.285714285714285" height="55.285714285714285" fill="#2e2e2e"/><circle cx="345.53" cy="345.53" r="13.82" fill="#273363"/><circle cx="373.18" cy="345.53" r="13.82" fill="#21389a"/><circle cx="345.53" cy="373.18" r="13.82" fill="#1f3aaa"/><circle cx="373.18" cy="373.18" r="13.82" fill="#1d3bb7"/><circle cx="414.645" cy="359.35499999999996" r="27.645" fill="#253577"/><rect x="442.2857142857143" y="331.7142857142857" width="55.285714285714285" height="55.285714285714285" fill="#2e2e2e"/><circle cx="456.11" cy="345.53" r="13.82" fill="#1f39a7"/><circle cx="483.75" cy="345.53" r="13.82" fill="#1a3dd0"/><circle cx="456.11" cy="373.18" r="13.82" fill="#662232"/><circle cx="483.75" cy="373.18" r="13.82" fill="#831b34"/><circle cx="525.215" cy="359.35499999999996" r="27.645" fill="#2b3043"/><rect x="552.8571428571429" y="331.7142857142857" width="55.285714285714285" height="55.285714285714285" fill="#2e2e2e"/><circle cx="566.6800000000001" cy="345.53" r="13.82" fill="#891a34"/><circle cx="594.32" cy="345.53" r="13.82" fill="#273365"/><circle cx="566.6800000000001" cy="373.18" r="13.82" fill="#4d2730"/><circle cx="594.32" cy="373.18" r="13.82" fill="#1c3cc2"/></g></svg>