<?xml version="1.0" standalone="no"?><svg xmlns:xlink="http://www.w3.org/1999/xlink" xmlns="http://www.w3.org/2000/svg" viewBox="0 0 1920 1221.8219130103053" preserveAspectRatio="xMaxYMax slice"><g transform="scale(3.1571625659181013)"><rect x="0" y="0" width="608.1428571428571" height="387" fill="#2e2e2e"/><rect x="5.5285714285714285" y="5.5285714285714285" width="44.22857142857143" height="44.22857142857143" fill="#2e2e2e"/><polygon points="5.53,5.53 27.64,27.64 5.53,27.64" fill="#1a3dd0"/><polygon points="27.64,5.53 49.75,5.53 49.75,27.64" fill="#1e3bb4"/><polygon points="27.64,27.64 27.64,49.75 5.53,49.75" fill="#1a3ed4"/><polygon points="49.75,27.64 49.75,49.75 27.64,49.75" fill="#2c2f3d"/><rect x="60.81428571428572" y="5.5285714285714285" width="44.22857142857143" height="44.22857142857143" fill="#2e2e2e"/><polygon points="60.81,5.53 82.92,5.53 60.81,27.64" fill="#1c3cc0"/><polygon points="82.93,5.53 105.04,27.64 82.93,27.64" fill="#24367d"/><polygon points="60.81,27.64 82.92,27.64 60.81,49.75" fill="#26346e"/><polygon points="82.93,27.64 105.04,49.75 82.93,49.75" fill="#2c2f3c"/><rect x="116.1" y="5.5285714285714285" width="44.22857142857143" height="44.22857142857143" fill="#2e2e2e"/><polygon points="116.1,5.53 138.20999999999998,5.53 138.20999999999998,27.64" fill="#2d2f34"/><polygon points="138.21,5.53 160.32,27.64 138.21,27.64" fill="#233684"/><polygon points="138.20999999999998,27.64 138.20999999999998,49.75 116.1,49.75" fill="#1d3bba"/><polygon points="138.21,27.64 160.32,27.64 138.21,49.75" fill="#283362"/><polygon points="215.61999999999998,5.53 215.61999999999998,49.76 171.39,49.76" fill="#1b3cc6"/><polygon points="226.67,5.53 270.9,49.76 226.67,49.76" fill="#2a3151"/><polygon points="281.96,5.53 326.19,49.76 281.96,49.76" fill="#1e3bb2"/><polygon points="337.24,5.53 381.47,5.53 381.47,49.76" fill="#2a314e"/><polygon points="436.76,5.53 436.76,49.76 392.53,49.76" fill="#2e2e30"/><polygon points="447.81,5.53 492.04,5.53 447.81,49.76" fill="#1c3cc3"/><rect x="503.09999999999997" y="5.5285714285714285" width="44.22857142857143" height="44.22857142857143" fill="#2e2e2e"/><polygon points="503.1,5.53 525.21,27.64 503.1,27.64" fill="#273366"/><polygon points="547.32,5.53 547.32,27.64 525.21,27.64" fill="#1e3aaf"/><polygon points="525.21,27.64 525.21,49.75 503.1,49.75" fill="#213897"/><polygon points="525.21,27.64 547.32,49.75 525.21,49.75" fill="#243681"/><polygon points="558.39,5.53 602.62,5.53 558.39,49.76" fill="#21389a"/><rect x="5.5285714285714285" y="60.81428571428572" width="44.22857142857143" height="44.22857142857143" fill="#2e2e2e"/><polygon points="5.53,60.81 27.64,82.92 5.53,82.92" fill="#233684"/><polygon points="27.64,60.81 49.75,60.81 27.64,82.92" fill="#20399d"/><polygon points="5.53,82.93 27.64,82.93 5.53,105.04" fill="#1c3cbd"/><polygon points="49.75,82.93 49.75,105.04 27.64,105.04" fill="#263470"/><polygon points="60.81,60.81 105.03999999999999,60.81 60.81,105.03999999999999" fill="#1c3cc1"/><rect x="116.1" y="60.81428571428572" width="44.22857142857143" height="44.22857142857143" fill="#2e2e2e"/><polygon points="116.1,60.81 138.20999999999998,60.81 116.1,82.92" fill="#24357d"/><polygon points="160.32,60.81 160.32,82.92 138.21,82.92" fill="#253578"/><polygon points="116.1,82.93 138.20999999999998,82.93 116.1,105.04" fill="#1f3aab"/><polygon points="138.21,82.93 160.32,82.93 160.32,105.04" fill="#193edb"/><rect x="171.3857142857143" y="60.81428571428572" width="44.22857142857143" height="44.22857142857143" fill="#2e2e2e"/><polygon points="171.39,60.81 193.5,60.81 171.39,82.92" fill="#283360"/><polygon points="193.5,60.81 215.61,60.81 215.61,82.92" fill="#1c3cc2"/><polygon points="193.5,82.93 193.5,105.04 171.39,105.04" fill="#223791"/><polygon points="193.5,82.93 215.61,82.93 215.61,105.04" fill="#2c2f3d"/><rect x="226.67142857142858" y="60.81428571428572" width="44.22857142857143" height="44.22857142857143" fill="#2e2e2e"/><polygon points="226.67,60.81 248.77999999999997,60.81 226.67,82.92" fill="#28335e"/><polygon points="248.79,60.81 270.9,60.81 248.79,82.92" fill="#22378f"/><polygon points="248.77999999999997,82.93 248.77999999999997,105.04 226.67,105.04" fill="#193edc"/><polygon points="248.79,82.93 270.9,82.93 248.79,105.04" fill="#193ed5"/><polygon points="281.96,60.81 326.19,60.81 281.96,105.03999999999999" fill="#293257"/><polygon points="337.24,60.81 381.47,60.81 337.24,105.03999999999999" fill="#2c2f3b"/><polygon points="392.53,60.81 436.76,60.81 436.76,105.03999999999999" fill="#1a3dd1"/><polygon points="447.81,60.81 492.04,60.81 447.81,105.03999999999999" fill="#1d3bbb"/><polygon points="503.1,60.81 547.33,105.03999999999999 503.1,105.03999999999999" fill="#233687"/><polygon points="558.39,60.81 602.62,60.81 602.62,105.03999999999999" fill="#1d3cbc"/><rect x="5.5285714285714285" y="116.1" width="44.22857142857143" height="44.22857142857143" fill="#2e2e2e"/><polygon points="5.53,116.1 27.64,116.1 5.53,138.20999999999998" fill="#2d2f38"/><polygon points="27.64,116.1 49.75,116.1 27.64,138.20999999999998" fill="#1e3aad"/><polygon points="27.64,138.21 27.64,160.32 5.53,160.32" fill="#2a3153"/><polygon points="27.64,138.21 49.75,160.32 27.64,160.32" fill="#2b3046"/><rect x="60.81428571428572" y="116.1" width="44.22857142857143" height="44.22857142857143" fill="#2e2e2e"/><polygon points="82.92,116.1 82.92,138.20999999999998 60.81,138.20999999999998" fill="#24367d"/><polygon points="105.04,116.1 105.04,138.20999999999998 82.93,138.20999999999998" fill="#183fdd"/><polygon points="60.81,138.21 82.92,138.21 60.81,160.32" fill="#183fe1"/><polygon points="82.93,138.21 105.04,138.21 105.04,160.32" fill="#2d2f3a"/><rect x="116.1" y="116.1" width="44.22857142857143" height="44.22857142857143" fill="#2e2e2e"/><polygon points="116.1,116.1 138.20999999999998,116.1 116.1,138.20999999999998" fill="#2b3045"/><polygon points="138.21,116.1 160.32,116.1 138.21,138.20999999999998" fill="#1f39a5"/><polygon points="116.1,138.21 138.20999999999998,138.21 138.20999999999998,160.32" fill="#223791"/><polygon points="138.21,138.21 160.32,138.21 160.32,160.32" fill="#20389c"/><polygon points="171.39,116.1 215.61999999999998,160.32999999999998 171.39,160.32999999999998" fill="#1e3ab0"/><rect x="226.67142857142858" y="116.1" width="44.22857142857143" height="44.22857142857143" fill="#2e2e2e"/><polygon points="226.67,116.1 248.77999999999997,116.1 248.77999999999997,138.20999999999998" fill="#193edb"/><polygon points="248.79,116.1 270.9,138.20999999999998 248.79,138.20999999999998" fill="#253573"/><polygon points="248.77999999999997,138.21 248.77999999999997,160.32 226.67,160.32" fill="#1f39a5"/><polygon points="248.79,138.21 270.9,138.21 248.79,160.32" fill="#213897"/><polygon points="281.96,116.1 326.19,116.1 326.19,160.32999999999998" fill="#2a3151"/><polygon points="337.24,116.1 381.47,116.1 337.24,160.32999999999998" fill="#1f3aac"/><rect x="392.5285714285714" y="116.1" width="44.22857142857143" height="44.22857142857143" fill="#2e2e2e"/><polygon points="414.64,116.1 414.64,138.20999999999998 392.53,138.20999999999998" fill="#1f3aab"/><polygon points="414.64,116.1 436.75,116.1 436.75,138.20999999999998" fill="#1e3bb4"/><polygon points="392.53,138.21 414.64,138.21 414.64,160.32" fill="#263470"/><polygon points="414.64,138.21 436.75,138.21 436.75,160.32" fill="#233685"/><rect x="447.8142857142857" y="116.1" width="44.22857142857143" height="44.22857142857143" fill="#2e2e2e"/><polygon points="447.81,116.1 469.92,138.20999999999998 447.81,138.20999999999998" fill="#2a3152"/><polygon points="469.93,116.1 492.04,138.20999999999998 469.93,138.20999999999998" fill="#253573"/><polygon points="447.81,138.21 469.92,160.32 447.81,160.32" fill="#23378b"/><polygon points="492.04,138.21 492.04,160.32 469.93,160.32" fill="#1b3dca"/><polygon points="503.1,116.1 547.33,160.32999999999998 503.1,160.32999999999998" fill="#2d2f39"/><rect x="558.3857142857144" y="116.1" width="44.22857142857143" height="44.22857142857143" fill="#2e2e2e"/><polygon points="558.39,116.1 580.5,138.20999999999998 558.39,138.20999999999998" fill="#26346f"/><polygon points="580.5,116.1 602.61,116.1 580.5,138.20999999999998" fill="#2c3042"/><polygon points="558.39,138.21 580.5,138.21 558.39,160.32" fill="#193edb"/><polygon points="580.5,138.21 602.61,138.21 580.5,160.32" fill="#2039a2"/><polygon points="5.53,171.39 49.76,171.39 5.53,215.61999999999998" fill="#21389b"/><rect x="60.81428571428572" y="171.3857142857143" width="44.22857142857143" height="44.22857142857143" fill="#2e2e2e"/><polygon points="60.81,171.39 82.92,193.5 60.81,193.5" fill="#22378f"/><polygon points="105.04,171.39 105.04,193.5 82.93,193.5" fill="#193eda"/><polygon points="60.81,193.5 82.92,193.5 60.81,215.61" fill="#1a3dcf"/><polygon points="105.04,193.5 105.04,215.61 82.93,215.61" fill="#24367f"/><rect x="116.1" y="171.3857142857143" width="44.22857142857143" height="44.22857142857143" fill="#2e2e2e"/><polygon points="116.1,171.39 138.20999999999998,171.39 138.20999999999998,193.5" fill="#2c2f3c"/><polygon points="138.21,171.39 160.32,171.39 138.21,193.5" fill="#213895"/><polygon points="116.1,193.5 138.20999999999998,193.5 116.1,215.61" fill="#253578"/><polygon points="160.32,193.5 160.32,215.61 138.21,215.61" fill="#2d2f3a"/><polygon points="171.39,171.39 215.61999999999998,215.61999999999998 171.39,215.61999999999998" fill="#2c3041"/><polygon points="226.67,171.39 270.9,171.39 270.9,215.61999999999998" fill="#1b3dcc"/><polygon points="326.19,171.39 326.19,215.61999999999998 281.96,215.61999999999998" fill="#2a3151"/><rect x="337.24285714285713" y="171.3857142857143" width="44.22857142857143" height="44.22857142857143" fill="#2e2e2e"/><polygon points="359.35,171.39 359.35,193.5 337.24,193.5" fill="#2a314f"/><polygon points="359.36,171.39 381.47,171.39 359.36,193.5" fill="#1a3ed4"/><polygon points="337.24,193.5 359.35,193.5 359.35,215.61" fill="#1c3cc0"/><polygon points="359.36,193.5 381.47,193.5 381.47,215.61" fill="#263471"/><rect x="392.5285714285714" y="171.3857142857143" width="44.22857142857143" height="44.22857142857143" fill="#2e2e2e"/><polygon points="392.53,171.39 414.64,171.39 414.64,193.5" fill="#1e3bb4"/><polygon points="414.64,171.39 436.75,193.5 414.64,193.5" fill="#2b3047"/><polygon points="392.53,193.5 414.64,193.5 392.53,215.61" fill="#273364"/><polygon points="414.64,193.5 436.75,215.61 414.64,215.61" fill="#253574"/><rect x="447.8142857142857" y="171.3857142857143" width="44.22857142857143" height="44.22857142857143" fill="#2e2e2e"/><polygon points="447.81,171.39 469.92,171.39 447.81,193.5" fill="#26346c"/><polygon points="492.04,171.39 492.04,193.5 469.93,193.5" fill="#293253"/><polygon points="447.81,193.5 469.92,193.5 469.92,215.61" fill="#28335f"/><polygon points="469.93,193.5 492.04,193.5 492.04,215.61" fill="#2c3040"/><polygon points="547.33,171.39 547.33,215.61999999999998 503.1,215.61999999999998" fill="#233684"/><polygon points="602.62,171.39 602.62,215.61999999999998 558.39,215.61999999999998" fill="#243681"/><polygon points="5.53,226.67 49.76,226.67 5.53,270.9" fill="#2b3045"/><polygon points="105.03999999999999,226.67 105.03999999999999,270.9 60.81,270.9" fill="#1b3cc5"/><polygon points="116.1,226.67 160.32999999999998,270.9 116.1,270.9" fill="#1a3ed3"/><rect x="171.3857142857143" y="226.67142857142858" width="44.22857142857143" height="44.22857142857143" fill="#2e2e2e"/><polygon points="193.5,226.67 193.5,248.77999999999997 171.39,248.77999999999997" fill="#1f3aa8"/><polygon points="193.5,226.67 215.61,226.67 193.5,248.77999999999997" fill="#233686"/><polygon points="171.39,248.79 193.5,248.79 193.5,270.9" fill="#2d2f38"/><polygon points="193.5,248.79 215.61,248.79 215.61,270.9" fill="#1b3dcc"/><polygon points="226.67,226.67 270.9,270.9 226.67,270.9" fill="#1f3aab"/><rect x="281.95714285714286" y="226.67142857142858" width="44.22857142857143" height="44.22857142857143" fill="#2e2e2e"/><polygon points="281.96,226.67 304.07,226.67 304.07,248.77999999999997" fill="#1c3cc1"/><polygon points="304.07,226.67 326.18,226.67 326.18,248.77999999999997" fill="#24367f"/><polygon points="281.96,248.79 304.07,248.79 281.96,270.9" fill="#293258"/><polygon points="304.07,248.79 326.18,248.79 304.07,270.9" fill="#273368"/><rect x="337.24285714285713" y="226.67142857142858" width="44.22857142857143" height="44.22857142857143" fill="#2e2e2e"/><polygon points="337.24,226.67 359.35,226.67 337.24,248.77999999999997" fill="#183fdf"/><polygon points="359.36,226.67 381.47,226.67 359.36,248.77999999999997" fill="#273363"/><polygon points="337.24,248.79 359.35,248.79 359.35,270.9" fill="#193edb"/><polygon points="359.36,248.79 381.47,248.79 359.36,270.9" fill="#27346b"/><polygon points="392.53,226.67 436.76,270.9 392.53,270.9" fill="#2c303f"/><rect x="447.8142857142857" y="226.67142857142858" width="44.22857142857143" height="44.22857142857143" fill="#2e2e2e"/><polygon points="447.81,226.67 469.92,248.77999999999997 447.81,248.77999999999997" fill="#273364"/><polygon points="469.93,226.67 492.04,226.67 492.04,248.77999999999997" fill="#2d2f37"/><polygon points="447.81,248.79 469.92,270.9 447.81,270.9" fill="#2c2f3c"/><polygon points="469.93,248.79 492.04,248.79 469.93,270.9" fill="#193ed8"/><rect x="503.09999999999997" y="226.67142857142858" width="44.22857142857143" height="44.22857142857143" fill="#2e2e2e"/><polygon points="525.21,226.67 525.21,248.77999999999997 503.1,248.77999999999997" fill="#1a3dcf"/><polygon points="547.32,226.67 547.32,248.77999999999997 525.21,248.77999999999997" fill="#273364"/><polygon points="503.1,248.79 525.21,248.79 525.21,270.9" fill="#2c2f3c"/><polygon points="525.21,248.79 547.32,248.79 547.32,270.9" fill="#2a314c"/><rect x="558.3857142857144" y="226.67142857142858" width="44.22857142857143" height="44.22857142857143" fill="#2e2e2e"/><polygon points="558.39,226.67 580.5,248.77999999999997 558.39,248.77999999999997" fill="#293254"/><polygon points="602.61,226.67 602.61,248.77999999999997 580.5,248.77999999999997" fill="#253579"/><polygon points="558.39,248.79 580.5,248.79 558.39,270.9" fill="#273468"/><polygon points="580.5,248.79 602.61,270.9 580.5,270.9" fill="#273367"/><rect x="5.5285714285714285" y="281.95714285714286" width="44.22857142857143" height="44.22857142857143" fill="#2e2e2e"/><polygon points="5.53,281.96 27.64,281.96 5.53,304.07" fill="#243682"/><polygon points="27.64,281.96 49.75,281.96 49.75,304.07" fill="#2a3151"/><polygon points="5.53,304.07 27.64,304.07 27.64,326.18" fill="#2c3040"/><polygon points="27.64,304.07 49.75,326.18 27.64,326.18" fill="#1f3aa9"/><polygon points="60.81,281.96 105.03999999999999,326.19 60.81,326.19" fill="#1b3dc9"/><polygon points="116.1,281.96 160.32999999999998,281.96 116.1,326.19" fill="#253576"/><rect x="171.3857142857143" y="281.95714285714286" width="44.22857142857143" height="44.22857142857143" fill="#2e2e2e"/><polygon points="171.39,281.96 193.5,281.96 193.5,304.07" fill="#1c3cc4"/><polygon points="193.5,281.96 215.61,281.96 215.61,304.07" fill="#193ed5"/><polygon points="171.39,304.07 193.5,304.07 193.5,326.18" fill="#22378c"/><polygon points="215.61,304.07 215.61,326.18 193.5,326.18" fill="#2039a4"/><rect x="226.67142857142858" y="281.95714285714286" width="44.22857142857143" height="44.22857142857143" fill="#2e2e2e"/><polygon points="226.67,281.96 248.77999999999997,304.07 226.67,304.07" fill="#233685"/><polygon points="248.79,281.96 270.9,281.96 270.9,304.07" fill="#213897"/><polygon points="226.67,304.07 248.77999999999997,326.18 226.67,326.18" fill="#213895"/><polygon points="248.79,304.07 270.9,326.18 248.79,326.18" fill="#293259"/><rect x="281.95714285714286" y="281.95714285714286" width="44.22857142857143" height="44.22857142857143" fill="#2e2e2e"/><polygon points="281.96,281.96 304.07,304.07 281.96,304.07" fill="#29325a"/><polygon points="304.07,281.96 326.18,281.96 304.07,304.07" fill="#22378d"/><polygon points="281.96,304.07 304.07,326.18 281.96,326.18" fill="#253577"/><polygon points="326.18,304.07 326.18,326.18 304.07,326.18" fill="#273363"/><polygon points="337.24,281.96 381.47,281.96 337.24,326.19" fill="#28325c"/><polygon points="392.53,281.96 436.76,281.96 392.53,326.19" fill="#293258"/><polygon points="447.81,281.96 492.04,281.96 492.04,326.19" fill="#1c3cbf"/><polygon points="503.1,281.96 547.33,281.96 503.1,326.19" fill="#2c303f"/><polygon points="558.39,281.96 602.62,281.96 558.39,326.19" fill="#2e2e2f"/><polygon points="5.53,337.24 49.76,337.24 5.53,381.47" fill="#1d3bbc"/><rect x="60.81428571428572" y="337.24285714285713" width="44.22857142857143" height="44.22857142857143" fill="#2e2e2e"/><polygon points="82.92,337.24 82.92,359.35 60.81,359.35" fill="#22378f"/><polygon points="105.04,337.24 105.04,359.35 82.93,359.35" fill="#213899"/><polygon points="60.81,359.36 82.92,359.36 60.81,381.47" fill="#23378b"/><polygon points="82.93,359.36 105.04,381.47 82.93,381.47" fill="#183fe0"/><rect x="116.1" y="337.24285714285713" width="44.22857142857143" height="44.22857142857143" fill="#2e2e2e"/><polygon points="116.1,337.24 138.20999999999998,337.24 116.1,359.35" fill="#1a3dce"/><polygon points="160.32,337.24 160.32,359.35 138.21,359.35" fill="#2c2f3c"/><polygon points="138.20999999999998,359.36 138.20999999999998,381.47 116.1,381.47" fill="#1b3dc9"/><polygon points="160.32,359.36 160.32,381.47 138.21,381.47" fill="#1e3aad"/><polygon points="215.61999999999998,337.24 215.61999999999998,381.47 171.39,381.47" fill="#2a3150"/><polygon points="270.9,337.24 270.9,381.47 226.67,381.47" fill="#2c2f3b"/><polygon points="281.96,337.24 326.19,381.47 281.96,381.47" fill="#1b3cc7"/><rect x="337.24285714285713" y="337.24285714285713" width="44.22857142857143" height="44.22857142857143" fill="#2e2e2e"/><polygon points="359.35,337.24 359.35,359.35 337.24,359.35" fill="#183fdd"/><polygon points="359.36,337.24 381.47,337.24 381.47,359.35" fill="#243680"/><polygon points="337.24,359.36 359.35,359.36 359.35,381.47" fill="#2c303f"/><polygon points="359.36,359.36 381.47,359.36 359.36,381.47" fill="#193ed7"/><polygon points="392.53,337.24 436.76,381.47 392.53,381.47" fill="#243682"/><rect x="447.8142857142857" y="337.24285714285713" width="44.22857142857143" height="44.22857142857143" fill="#2e2e2e"/><polygon points="447.81,337.24 469.92,337.24 469.92,359.35" fill="#233687"/><polygon points="469.93,337.24 492.04,337.24 469.93,359.35" fill="#1b3dcb"/><polygon points="447.81,359.36 469.92,359.36 469.92,381.47" fill="#2a314d"/><polygon points="492.04,359.36 492.04,381.47 469.93,381.47" fill="#1e3ab1"/><polygon points="503.1,337.24 547.33,381.47 503.1,381.47" fill="#21389c"/><polygon points="558.39,337.24 602.62,337.24 558.39,381.47" fill="#293258"/></g></svg>